<svg width="52" height="52" viewBox="0 0 52 52" fill="none" xmlns="http://www.w3.org/2000/svg">
<g filter="url(#filter0_d_15120_500977)">
<path d="M2.5 11C2.5 5.75329 6.75329 1.5 12 1.5H40C45.2467 1.5 49.5 5.75329 49.5 11V39C49.5 44.2467 45.2467 48.5 40 48.5H12C6.75329 48.5 2.5 44.2467 2.5 39V11Z" stroke="#333741" shape-rendering="crispEdges"/>
<path d="M26 34L25.8999 33.8499C25.2053 32.808 24.858 32.287 24.3991 31.9098C23.9929 31.5759 23.5248 31.3254 23.0216 31.1726C22.4533 31 21.8271 31 20.5748 31H19.2C18.0799 31 17.5198 31 17.092 30.782C16.7157 30.5903 16.4097 30.2843 16.218 29.908C16 29.4802 16 28.9201 16 27.8V19.2C16 18.0799 16 17.5198 16.218 17.092C16.4097 16.7157 16.7157 16.4097 17.092 16.218C17.5198 16 18.0799 16 19.2 16H19.6C21.8402 16 22.9603 16 23.816 16.436C24.5686 16.8195 25.1805 17.4314 25.564 18.184C26 19.0397 26 20.1598 26 22.4M26 34V22.4M26 34L26.1001 33.8499C26.7947 32.808 27.142 32.287 27.6009 31.9098C28.0071 31.5759 28.4752 31.3254 28.9784 31.1726C29.5467 31 30.1729 31 31.4252 31H32.8C33.9201 31 34.4802 31 34.908 30.782C35.2843 30.5903 35.5903 30.2843 35.782 29.908C36 29.4802 36 28.9201 36 27.8V19.2C36 18.0799 36 17.5198 35.782 17.092C35.5903 16.7157 35.2843 16.4097 34.908 16.218C34.4802 16 33.9201 16 32.8 16H32.4C30.1598 16 29.0397 16 28.184 16.436C27.4314 16.8195 26.8195 17.4314 26.436 18.184C26 19.0397 26 20.1598 26 22.4" stroke="#CECFD2" stroke-width="2" stroke-linecap="round" stroke-linejoin="round"/>
</g>
<defs>
<filter id="filter0_d_15120_500977" x="0" y="0" width="52" height="52" filterUnits="userSpaceOnUse" color-interpolation-filters="sRGB">
<feFlood flood-opacity="0" result="BackgroundImageFix"/>
<feColorMatrix in="SourceAlpha" type="matrix" values="0 0 0 0 0 0 0 0 0 0 0 0 0 0 0 0 0 0 127 0" result="hardAlpha"/>
<feOffset dy="1"/>
<feGaussianBlur stdDeviation="1"/>
<feComposite in2="hardAlpha" operator="out"/>
<feColorMatrix type="matrix" values="0 0 0 0 0.0627451 0 0 0 0 0.0941176 0 0 0 0 0.156863 0 0 0 0.05 0"/>
<feBlend mode="normal" in2="BackgroundImageFix" result="effect1_dropShadow_15120_500977"/>
<feBlend mode="normal" in="SourceGraphic" in2="effect1_dropShadow_15120_500977" result="shape"/>
</filter>
</defs>
</svg>
