<svg width="52" height="52" viewBox="0 0 52 52" fill="none" xmlns="http://www.w3.org/2000/svg">
<g filter="url(#filter0_d_15120_500937)">
<path d="M2.5 11C2.5 5.75329 6.75329 1.5 12 1.5H40C45.2467 1.5 49.5 5.75329 49.5 11V39C49.5 44.2467 45.2467 48.5 40 48.5H12C6.75329 48.5 2.5 44.2467 2.5 39V11Z" stroke="#333741" shape-rendering="crispEdges"/>
<path d="M26 15C28.5013 17.7384 29.9228 21.292 30 25C29.9228 28.708 28.5013 32.2616 26 35M26 15C23.4987 17.7384 22.0772 21.292 22 25C22.0772 28.708 23.4987 32.2616 26 35M26 15C20.4772 15 16 19.4772 16 25C16 30.5228 20.4772 35 26 35M26 15C31.5228 15 36 19.4772 36 25C36 30.5228 31.5228 35 26 35M16.5 22H35.5M16.5 28H35.5" stroke="#CECFD2" stroke-width="2" stroke-linecap="round" stroke-linejoin="round"/>
</g>
<defs>
<filter id="filter0_d_15120_500937" x="0" y="0" width="52" height="52" filterUnits="userSpaceOnUse" color-interpolation-filters="sRGB">
<feFlood flood-opacity="0" result="BackgroundImageFix"/>
<feColorMatrix in="SourceAlpha" type="matrix" values="0 0 0 0 0 0 0 0 0 0 0 0 0 0 0 0 0 0 127 0" result="hardAlpha"/>
<feOffset dy="1"/>
<feGaussianBlur stdDeviation="1"/>
<feComposite in2="hardAlpha" operator="out"/>
<feColorMatrix type="matrix" values="0 0 0 0 0.0627451 0 0 0 0 0.0941176 0 0 0 0 0.156863 0 0 0 0.05 0"/>
<feBlend mode="normal" in2="BackgroundImageFix" result="effect1_dropShadow_15120_500937"/>
<feBlend mode="normal" in="SourceGraphic" in2="effect1_dropShadow_15120_500937" result="shape"/>
</filter>
</defs>
</svg>