<svg width="149" height="32" viewBox="0 0 149 32" fill="none" xmlns="http://www.w3.org/2000/svg">
<rect x="8.79999" y="13.6" width="4.8" height="4.8" fill="#155EEF"/>
<rect x="23.2" y="18.4" width="4.8" height="4.8" transform="rotate(180 23.2 18.4)" fill="#004EEB"/>
<path d="M13.6 13.6L18.4 8.79999V13.6L13.6 18.4V13.6Z" fill="#B2CCFF"/>
<path d="M18.4 18.4L13.6 23.2L13.6 18.4L18.4 13.6L18.4 18.4Z" fill="#84ADFF"/>
<path d="M8.79999 13.6L18.4 4V8.8L13.6 13.6H8.79999Z" fill="#528BFF"/>
<path d="M23.2 18.4L13.6 28L13.6 23.2L18.4 18.4L23.2 18.4Z" fill="#2970FF"/>
<path d="M34.6875 22L32.3125 13.2727H34.7614L36.1136 19.1364H36.1932L37.6023 13.2727H40.0057L41.4375 19.1023H41.5114L42.8409 13.2727H45.2841L42.9148 22H40.3523L38.8523 16.5114H38.7443L37.2443 22H34.6875ZM50.3338 22.1705C49.4361 22.1705 48.6634 21.9886 48.0156 21.625C47.3717 21.2576 46.8755 20.7386 46.527 20.0682C46.1785 19.3939 46.0043 18.5966 46.0043 17.6761C46.0043 16.7784 46.1785 15.9905 46.527 15.3125C46.8755 14.6345 47.366 14.1061 47.9986 13.7273C48.6349 13.3485 49.3812 13.1591 50.2372 13.1591C50.813 13.1591 51.349 13.2519 51.8452 13.4375C52.3452 13.6193 52.7808 13.8939 53.152 14.2614C53.527 14.6288 53.8187 15.0909 54.027 15.6477C54.2353 16.2008 54.3395 16.8485 54.3395 17.5909V18.2557H46.9702V16.7557H52.0611C52.0611 16.4072 51.9853 16.0985 51.8338 15.8295C51.6823 15.5606 51.4721 15.3504 51.2031 15.1989C50.938 15.0436 50.6293 14.9659 50.277 14.9659C49.9096 14.9659 49.5838 15.0511 49.2997 15.2216C49.0194 15.3883 48.7997 15.6136 48.6406 15.8977C48.4815 16.178 48.4001 16.4905 48.3963 16.8352V18.2614C48.3963 18.6932 48.4759 19.0663 48.6349 19.3807C48.7978 19.6951 49.027 19.9375 49.3224 20.108C49.6179 20.2784 49.9683 20.3636 50.3736 20.3636C50.6425 20.3636 50.8887 20.3258 51.1122 20.25C51.3357 20.1742 51.527 20.0606 51.6861 19.9091C51.8452 19.7576 51.9664 19.572 52.0497 19.3523L54.2884 19.5C54.1747 20.0379 53.9418 20.5076 53.5895 20.9091C53.241 21.3068 52.7902 21.6174 52.2372 21.8409C51.688 22.0606 51.0535 22.1705 50.3338 22.1705ZM55.9645 22V10.3636H58.3849V14.7386H58.4588C58.5649 14.5038 58.7183 14.2652 58.919 14.0227C59.1236 13.7765 59.3887 13.572 59.7145 13.4091C60.044 13.2424 60.4531 13.1591 60.9418 13.1591C61.5781 13.1591 62.1652 13.3258 62.7031 13.6591C63.241 13.9886 63.6709 14.4867 63.9929 15.1534C64.3149 15.8163 64.4759 16.6477 64.4759 17.6477C64.4759 18.6212 64.3187 19.4432 64.0043 20.1136C63.6937 20.7803 63.2694 21.286 62.7315 21.6307C62.1974 21.9716 61.599 22.142 60.9361 22.142C60.4664 22.142 60.0668 22.0644 59.7372 21.9091C59.4115 21.7538 59.1444 21.5587 58.9361 21.3239C58.7277 21.0852 58.5687 20.8447 58.4588 20.6023H58.3509V22H55.9645ZM58.3338 17.6364C58.3338 18.1553 58.4058 18.608 58.5497 18.9943C58.6937 19.3807 58.902 19.6818 59.1747 19.8977C59.4474 20.1098 59.7789 20.2159 60.169 20.2159C60.563 20.2159 60.8963 20.108 61.169 19.892C61.4418 19.6723 61.6482 19.3693 61.7884 18.983C61.9323 18.5928 62.0043 18.1439 62.0043 17.6364C62.0043 17.1326 61.9342 16.6894 61.794 16.3068C61.6539 15.9242 61.4474 15.625 61.1747 15.4091C60.902 15.1932 60.5668 15.0852 60.169 15.0852C59.7751 15.0852 59.4418 15.1894 59.169 15.3977C58.9001 15.6061 58.6937 15.9015 58.5497 16.2841C58.4058 16.6667 58.3338 17.1174 58.3338 17.6364ZM70.0682 22.1705C69.1705 22.1705 68.3977 21.9886 67.75 21.625C67.1061 21.2576 66.6098 20.7386 66.2614 20.0682C65.9129 19.3939 65.7386 18.5966 65.7386 17.6761C65.7386 16.7784 65.9129 15.9905 66.2614 15.3125C66.6098 14.6345 67.1004 14.1061 67.733 13.7273C68.3693 13.3485 69.1155 13.1591 69.9716 13.1591C70.5473 13.1591 71.0833 13.2519 71.5795 13.4375C72.0795 13.6193 72.5152 13.8939 72.8864 14.2614C73.2614 14.6288 73.553 15.0909 73.7614 15.6477C73.9697 16.2008 74.0739 16.8485 74.0739 17.5909V18.2557H66.7045V16.7557H71.7955C71.7955 16.4072 71.7197 16.0985 71.5682 15.8295C71.4167 15.5606 71.2064 15.3504 70.9375 15.1989C70.6723 15.0436 70.3636 14.9659 70.0114 14.9659C69.6439 14.9659 69.3182 15.0511 69.0341 15.2216C68.7538 15.3883 68.5341 15.6136 68.375 15.8977C68.2159 16.178 68.1345 16.4905 68.1307 16.8352V18.2614C68.1307 18.6932 68.2102 19.0663 68.3693 19.3807C68.5322 19.6951 68.7614 19.9375 69.0568 20.108C69.3523 20.2784 69.7027 20.3636 70.108 20.3636C70.3769 20.3636 70.6231 20.3258 70.8466 20.25C71.0701 20.1742 71.2614 20.0606 71.4205 19.9091C71.5795 19.7576 71.7008 19.572 71.7841 19.3523L74.0227 19.5C73.9091 20.0379 73.6761 20.5076 73.3239 20.9091C72.9754 21.3068 72.5246 21.6174 71.9716 21.8409C71.4223 22.0606 70.7879 22.1705 70.0682 22.1705ZM77.5199 13.2727L79.1222 16.3239L80.7642 13.2727H83.2472L80.7188 17.6364L83.3153 22H80.8438L79.1222 18.983L77.429 22H74.929L77.5199 17.6364L75.0199 13.2727H77.5199ZM89.3267 13.2727V15.0909H84.071V13.2727H89.3267ZM85.2642 11.1818H87.6847V19.3182C87.6847 19.5417 87.7188 19.7159 87.7869 19.8409C87.8551 19.9621 87.9498 20.0473 88.071 20.0966C88.196 20.1458 88.34 20.1705 88.5028 20.1705C88.6165 20.1705 88.7301 20.161 88.8438 20.142C88.9574 20.1193 89.0445 20.1023 89.1051 20.0909L89.4858 21.892C89.3646 21.9299 89.1941 21.9735 88.9744 22.0227C88.7547 22.0758 88.4877 22.108 88.1733 22.1193C87.59 22.142 87.0786 22.0644 86.6392 21.8864C86.2036 21.7083 85.8646 21.4318 85.6222 21.0568C85.3797 20.6818 85.2604 20.2083 85.2642 19.6364V11.1818ZM96.0753 16.2614V18.1818H90.7685V16.2614H96.0753ZM98.1832 22V10.3636H100.604V14.7386H100.678C100.784 14.5038 100.937 14.2652 101.138 14.0227C101.342 13.7765 101.607 13.572 101.933 13.4091C102.263 13.2424 102.672 13.1591 103.161 13.1591C103.797 13.1591 104.384 13.3258 104.922 13.6591C105.46 13.9886 105.89 14.4867 106.212 15.1534C106.534 15.8163 106.695 16.6477 106.695 17.6477C106.695 18.6212 106.537 19.4432 106.223 20.1136C105.912 20.7803 105.488 21.286 104.95 21.6307C104.416 21.9716 103.818 22.142 103.155 22.142C102.685 22.142 102.286 22.0644 101.956 21.9091C101.63 21.7538 101.363 21.5587 101.155 21.3239C100.946 21.0852 100.787 20.8447 100.678 20.6023H100.57V22H98.1832ZM100.553 17.6364C100.553 18.1553 100.625 18.608 100.768 18.9943C100.912 19.3807 101.121 19.6818 101.393 19.8977C101.666 20.1098 101.998 20.2159 102.388 20.2159C102.782 20.2159 103.115 20.108 103.388 19.892C103.661 19.6723 103.867 19.3693 104.007 18.983C104.151 18.5928 104.223 18.1439 104.223 17.6364C104.223 17.1326 104.153 16.6894 104.013 16.3068C103.873 15.9242 103.666 15.625 103.393 15.4091C103.121 15.1932 102.786 15.0852 102.388 15.0852C101.994 15.0852 101.661 15.1894 101.388 15.3977C101.119 15.6061 100.912 15.9015 100.768 16.2841C100.625 16.6667 100.553 17.1174 100.553 17.6364ZM108.31 22V13.2727H110.656V14.7955H110.747C110.906 14.2538 111.173 13.8447 111.548 13.5682C111.923 13.2879 112.355 13.1477 112.844 13.1477C112.965 13.1477 113.096 13.1553 113.236 13.1705C113.376 13.1856 113.499 13.2064 113.605 13.233V15.3807C113.491 15.3466 113.334 15.3163 113.134 15.2898C112.933 15.2633 112.749 15.25 112.582 15.25C112.226 15.25 111.908 15.3277 111.628 15.483C111.351 15.6345 111.132 15.8466 110.969 16.1193C110.81 16.392 110.73 16.7064 110.73 17.0625V22H108.31ZM114.857 22V13.2727H117.277V22H114.857ZM116.072 12.1477C115.713 12.1477 115.404 12.0284 115.146 11.7898C114.893 11.5473 114.766 11.2576 114.766 10.9205C114.766 10.5871 114.893 10.3011 115.146 10.0625C115.404 9.82008 115.713 9.69886 116.072 9.69886C116.432 9.69886 116.739 9.82008 116.993 10.0625C117.25 10.3011 117.379 10.5871 117.379 10.9205C117.379 11.2576 117.25 11.5473 116.993 11.7898C116.739 12.0284 116.432 12.1477 116.072 12.1477ZM122.432 22.142C121.769 22.142 121.169 21.9716 120.631 21.6307C120.097 21.286 119.672 20.7803 119.358 20.1136C119.047 19.4432 118.892 18.6212 118.892 17.6477C118.892 16.6477 119.053 15.8163 119.375 15.1534C119.697 14.4867 120.125 13.9886 120.659 13.6591C121.197 13.3258 121.786 13.1591 122.426 13.1591C122.915 13.1591 123.322 13.2424 123.648 13.4091C123.977 13.572 124.242 13.7765 124.443 14.0227C124.648 14.2652 124.803 14.5038 124.909 14.7386H124.983V10.3636H127.398V22H125.011V20.6023H124.909C124.795 20.8447 124.634 21.0852 124.426 21.3239C124.222 21.5587 123.955 21.7538 123.625 21.9091C123.299 22.0644 122.902 22.142 122.432 22.142ZM123.199 20.2159C123.589 20.2159 123.919 20.1098 124.188 19.8977C124.46 19.6818 124.669 19.3807 124.812 18.9943C124.96 18.608 125.034 18.1553 125.034 17.6364C125.034 17.1174 124.962 16.6667 124.818 16.2841C124.674 15.9015 124.466 15.6061 124.193 15.3977C123.92 15.1894 123.589 15.0852 123.199 15.0852C122.801 15.0852 122.466 15.1932 122.193 15.4091C121.92 15.625 121.714 15.9242 121.574 16.3068C121.434 16.6894 121.364 17.1326 121.364 17.6364C121.364 18.1439 121.434 18.5928 121.574 18.983C121.718 19.3693 121.924 19.6723 122.193 19.892C122.466 20.108 122.801 20.2159 123.199 20.2159ZM133.32 25.4545C132.536 25.4545 131.863 25.3466 131.303 25.1307C130.746 24.9186 130.303 24.6288 129.973 24.2614C129.643 23.8939 129.429 23.4811 129.331 23.0227L131.57 22.7216C131.638 22.8958 131.746 23.0587 131.893 23.2102C132.041 23.3617 132.236 23.483 132.479 23.5739C132.725 23.6686 133.024 23.7159 133.376 23.7159C133.903 23.7159 134.337 23.5871 134.678 23.3295C135.022 23.0758 135.195 22.6496 135.195 22.0511V20.4545H135.092C134.986 20.697 134.827 20.9261 134.615 21.142C134.403 21.358 134.13 21.5341 133.797 21.6705C133.464 21.8068 133.066 21.875 132.604 21.875C131.948 21.875 131.352 21.7235 130.814 21.4205C130.28 21.1136 129.854 20.6458 129.536 20.017C129.221 19.3845 129.064 18.5852 129.064 17.6193C129.064 16.6307 129.225 15.8049 129.547 15.142C129.869 14.4792 130.297 13.983 130.831 13.6534C131.369 13.3239 131.958 13.1591 132.598 13.1591C133.087 13.1591 133.496 13.2424 133.825 13.4091C134.155 13.572 134.42 13.7765 134.621 14.0227C134.825 14.2652 134.982 14.5038 135.092 14.7386H135.183V13.2727H137.587V22.0852C137.587 22.8277 137.405 23.4489 137.041 23.9489C136.678 24.4489 136.174 24.8239 135.53 25.0739C134.89 25.3277 134.153 25.4545 133.32 25.4545ZM133.371 20.0568C133.761 20.0568 134.09 19.9602 134.359 19.767C134.632 19.5701 134.84 19.2898 134.984 18.9261C135.132 18.5587 135.206 18.1193 135.206 17.608C135.206 17.0966 135.134 16.6534 134.99 16.2784C134.846 15.8996 134.638 15.6061 134.365 15.3977C134.092 15.1894 133.761 15.0852 133.371 15.0852C132.973 15.0852 132.638 15.1932 132.365 15.4091C132.092 15.6212 131.886 15.9167 131.746 16.2955C131.606 16.6742 131.536 17.1117 131.536 17.608C131.536 18.1117 131.606 18.5473 131.746 18.9148C131.89 19.2784 132.096 19.5606 132.365 19.7614C132.638 19.9583 132.973 20.0568 133.371 20.0568ZM143.49 22.1705C142.592 22.1705 141.82 21.9886 141.172 21.625C140.528 21.2576 140.032 20.7386 139.683 20.0682C139.335 19.3939 139.161 18.5966 139.161 17.6761C139.161 16.7784 139.335 15.9905 139.683 15.3125C140.032 14.6345 140.522 14.1061 141.155 13.7273C141.791 13.3485 142.537 13.1591 143.393 13.1591C143.969 13.1591 144.505 13.2519 145.001 13.4375C145.501 13.6193 145.937 13.8939 146.308 14.2614C146.683 14.6288 146.975 15.0909 147.183 15.6477C147.392 16.2008 147.496 16.8485 147.496 17.5909V18.2557H140.126V16.7557H145.217C145.217 16.4072 145.142 16.0985 144.99 15.8295C144.839 15.5606 144.628 15.3504 144.359 15.1989C144.094 15.0436 143.786 14.9659 143.433 14.9659C143.066 14.9659 142.74 15.0511 142.456 15.2216C142.176 15.3883 141.956 15.6136 141.797 15.8977C141.638 16.178 141.556 16.4905 141.553 16.8352V18.2614C141.553 18.6932 141.632 19.0663 141.791 19.3807C141.954 19.6951 142.183 19.9375 142.479 20.108C142.774 20.2784 143.125 20.3636 143.53 20.3636C143.799 20.3636 144.045 20.3258 144.268 20.25C144.492 20.1742 144.683 20.0606 144.842 19.9091C145.001 19.7576 145.123 19.572 145.206 19.3523L147.445 19.5C147.331 20.0379 147.098 20.5076 146.746 20.9091C146.397 21.3068 145.946 21.6174 145.393 21.8409C144.844 22.0606 144.21 22.1705 143.49 22.1705Z" fill="#F5F5F6"/>
</svg>
