<svg width="1138" height="466" viewBox="0 0 1138 466" fill="none" xmlns="http://www.w3.org/2000/svg">
<rect x="240" y="2" width="176" height="176" rx="6" fill="#0D99FF"/>
<path d="M305.115 96V84.3636H309.263C310.168 84.3636 310.918 84.5284 311.513 84.858C312.107 85.1875 312.552 85.6383 312.848 86.2102C313.143 86.7784 313.291 87.4186 313.291 88.1307C313.291 88.8466 313.141 89.4905 312.842 90.0625C312.547 90.6307 312.1 91.0814 311.501 91.4148C310.906 91.7443 310.158 91.9091 309.257 91.9091H306.405V90.4205H309.098C309.67 90.4205 310.134 90.322 310.49 90.125C310.846 89.9242 311.107 89.6515 311.274 89.3068C311.441 88.9621 311.524 88.5701 311.524 88.1307C311.524 87.6913 311.441 87.3011 311.274 86.9602C311.107 86.6193 310.844 86.3523 310.484 86.1591C310.128 85.9659 309.658 85.8693 309.075 85.8693H306.87V96H305.115ZM318.604 96.1761C317.785 96.1761 317.071 95.9886 316.462 95.6136C315.852 95.2386 315.378 94.714 315.041 94.0398C314.704 93.3655 314.535 92.5777 314.535 91.6761C314.535 90.7708 314.704 89.9792 315.041 89.3011C315.378 88.6231 315.852 88.0966 316.462 87.7216C317.071 87.3466 317.785 87.1591 318.604 87.1591C319.422 87.1591 320.136 87.3466 320.746 87.7216C321.355 88.0966 321.829 88.6231 322.166 89.3011C322.503 89.9792 322.672 90.7708 322.672 91.6761C322.672 92.5777 322.503 93.3655 322.166 94.0398C321.829 94.714 321.355 95.2386 320.746 95.6136C320.136 95.9886 319.422 96.1761 318.604 96.1761ZM318.609 94.75C319.14 94.75 319.579 94.6098 319.927 94.3295C320.276 94.0492 320.533 93.6761 320.7 93.2102C320.871 92.7443 320.956 92.2311 320.956 91.6705C320.956 91.1136 320.871 90.6023 320.7 90.1364C320.533 89.6667 320.276 89.2898 319.927 89.0057C319.579 88.7216 319.14 88.5795 318.609 88.5795C318.075 88.5795 317.632 88.7216 317.28 89.0057C316.931 89.2898 316.672 89.6667 316.501 90.1364C316.335 90.6023 316.251 91.1136 316.251 91.6705C316.251 92.2311 316.335 92.7443 316.501 93.2102C316.672 93.6761 316.931 94.0492 317.28 94.3295C317.632 94.6098 318.075 94.75 318.609 94.75ZM324.392 99.2727V87.2727H326.051V88.6875H326.193C326.292 88.5057 326.434 88.2955 326.619 88.0568C326.805 87.8182 327.063 87.6098 327.392 87.4318C327.722 87.25 328.157 87.1591 328.699 87.1591C329.403 87.1591 330.032 87.3371 330.585 87.6932C331.138 88.0492 331.572 88.5625 331.886 89.233C332.205 89.9034 332.364 90.7102 332.364 91.6534C332.364 92.5966 332.206 93.4053 331.892 94.0795C331.578 94.75 331.146 95.267 330.597 95.6307C330.047 95.9905 329.42 96.1705 328.716 96.1705C328.186 96.1705 327.752 96.0814 327.415 95.9034C327.081 95.7254 326.82 95.517 326.631 95.2784C326.441 95.0398 326.295 94.8277 326.193 94.642H326.091V99.2727H324.392ZM326.057 91.6364C326.057 92.25 326.146 92.7879 326.324 93.25C326.502 93.7121 326.759 94.0739 327.097 94.3352C327.434 94.5928 327.847 94.7216 328.335 94.7216C328.843 94.7216 329.267 94.5871 329.608 94.3182C329.949 94.0455 330.206 93.6761 330.381 93.2102C330.559 92.7443 330.648 92.2197 330.648 91.6364C330.648 91.0606 330.561 90.5436 330.386 90.0852C330.216 89.6269 329.958 89.2652 329.614 89C329.273 88.7348 328.847 88.6023 328.335 88.6023C327.843 88.6023 327.426 88.7292 327.085 88.983C326.748 89.2367 326.492 89.5909 326.318 90.0455C326.144 90.5 326.057 91.0303 326.057 91.6364ZM339.619 92.3807V87.2727H341.324V96H339.654V94.4886H339.563C339.362 94.9545 339.04 95.3428 338.597 95.6534C338.157 95.9602 337.61 96.1136 336.955 96.1136C336.394 96.1136 335.898 95.9905 335.466 95.7443C335.038 95.4943 334.701 95.125 334.455 94.6364C334.212 94.1477 334.091 93.5436 334.091 92.8239V87.2727H335.79V92.6193C335.79 93.214 335.955 93.6875 336.284 94.0398C336.614 94.392 337.042 94.5682 337.568 94.5682C337.886 94.5682 338.203 94.4886 338.517 94.3295C338.835 94.1705 339.099 93.9299 339.307 93.608C339.519 93.286 339.623 92.8769 339.619 92.3807ZM343.431 99.2727V87.2727H345.09V88.6875H345.232C345.33 88.5057 345.472 88.2955 345.658 88.0568C345.844 87.8182 346.101 87.6098 346.431 87.4318C346.76 87.25 347.196 87.1591 347.737 87.1591C348.442 87.1591 349.071 87.3371 349.624 87.6932C350.177 88.0492 350.611 88.5625 350.925 89.233C351.243 89.9034 351.402 90.7102 351.402 91.6534C351.402 92.5966 351.245 93.4053 350.931 94.0795C350.616 94.75 350.184 95.267 349.635 95.6307C349.086 95.9905 348.459 96.1705 347.755 96.1705C347.224 96.1705 346.791 96.0814 346.453 95.9034C346.12 95.7254 345.859 95.517 345.669 95.2784C345.48 95.0398 345.334 94.8277 345.232 94.642H345.13V99.2727H343.431ZM345.095 91.6364C345.095 92.25 345.184 92.7879 345.362 93.25C345.541 93.7121 345.798 94.0739 346.135 94.3352C346.472 94.5928 346.885 94.7216 347.374 94.7216C347.881 94.7216 348.306 94.5871 348.647 94.3182C348.987 94.0455 349.245 93.6761 349.419 93.2102C349.597 92.7443 349.686 92.2197 349.686 91.6364C349.686 91.0606 349.599 90.5436 349.425 90.0852C349.255 89.6269 348.997 89.2652 348.652 89C348.311 88.7348 347.885 88.6023 347.374 88.6023C346.881 88.6023 346.465 88.7292 346.124 88.983C345.787 89.2367 345.531 89.5909 345.357 90.0455C345.183 90.5 345.095 91.0303 345.095 91.6364Z" fill="white"/>
<rect y="2" width="176" height="176" rx="6" fill="#0D99FF"/>
<path d="M40.308 88.1477H38.5353C38.4671 87.7689 38.3402 87.4356 38.1546 87.1477C37.969 86.8598 37.7417 86.6155 37.4728 86.4148C37.2038 86.214 36.9027 86.0625 36.5694 85.9602C36.2398 85.858 35.8894 85.8068 35.5182 85.8068C34.8478 85.8068 34.2474 85.9754 33.7171 86.3125C33.1906 86.6496 32.7739 87.1439 32.4671 87.7955C32.1641 88.447 32.0125 89.2424 32.0125 90.1818C32.0125 91.1288 32.1641 91.928 32.4671 92.5795C32.7739 93.2311 33.1925 93.7235 33.7228 94.0568C34.2531 94.3902 34.8497 94.5568 35.5125 94.5568C35.88 94.5568 36.2284 94.5076 36.558 94.4091C36.8913 94.3068 37.1925 94.1572 37.4614 93.9602C37.7303 93.7633 37.9576 93.5227 38.1432 93.2386C38.3326 92.9508 38.4633 92.6212 38.5353 92.25L40.308 92.2557C40.2133 92.8277 40.0296 93.3542 39.7569 93.8352C39.4879 94.3125 39.1413 94.7254 38.7171 95.0739C38.2966 95.4186 37.8156 95.6856 37.2739 95.875C36.7322 96.0644 36.1413 96.1591 35.5012 96.1591C34.4936 96.1591 33.5959 95.9205 32.808 95.4432C32.0201 94.9621 31.3989 94.2746 30.9444 93.3807C30.4936 92.4867 30.2682 91.4205 30.2682 90.1818C30.2682 88.9394 30.4955 87.8731 30.95 86.983C31.4046 86.089 32.0258 85.4034 32.8137 84.9261C33.6016 84.4451 34.4974 84.2045 35.5012 84.2045C36.1186 84.2045 36.6944 84.2936 37.2284 84.4716C37.7663 84.6458 38.2493 84.9034 38.6773 85.2443C39.1053 85.5814 39.4595 85.9943 39.7398 86.483C40.0201 86.9678 40.2095 87.5227 40.308 88.1477ZM45.7726 96.1761C44.9544 96.1761 44.2404 95.9886 43.6306 95.6136C43.0207 95.2386 42.5472 94.714 42.2101 94.0398C41.873 93.3655 41.7044 92.5777 41.7044 91.6761C41.7044 90.7708 41.873 89.9792 42.2101 89.3011C42.5472 88.6231 43.0207 88.0966 43.6306 87.7216C44.2404 87.3466 44.9544 87.1591 45.7726 87.1591C46.5908 87.1591 47.3048 87.3466 47.9147 87.7216C48.5245 88.0966 48.998 88.6231 49.3351 89.3011C49.6722 89.9792 49.8408 90.7708 49.8408 91.6761C49.8408 92.5777 49.6722 93.3655 49.3351 94.0398C48.998 94.714 48.5245 95.2386 47.9147 95.6136C47.3048 95.9886 46.5908 96.1761 45.7726 96.1761ZM45.7783 94.75C46.3086 94.75 46.748 94.6098 47.0965 94.3295C47.445 94.0492 47.7025 93.6761 47.8692 93.2102C48.0397 92.7443 48.1249 92.2311 48.1249 91.6705C48.1249 91.1136 48.0397 90.6023 47.8692 90.1364C47.7025 89.6667 47.445 89.2898 47.0965 89.0057C46.748 88.7216 46.3086 88.5795 45.7783 88.5795C45.2442 88.5795 44.801 88.7216 44.4488 89.0057C44.1003 89.2898 43.8408 89.6667 43.6703 90.1364C43.5037 90.6023 43.4203 91.1136 43.4203 91.6705C43.4203 92.2311 43.5037 92.7443 43.6703 93.2102C43.8408 93.6761 44.1003 94.0492 44.4488 94.3295C44.801 94.6098 45.2442 94.75 45.7783 94.75ZM53.26 90.8182V96H51.5611V87.2727H53.1918V88.6932H53.2997C53.5005 88.2311 53.8149 87.8598 54.2429 87.5795C54.6747 87.2992 55.2183 87.1591 55.8736 87.1591C56.4683 87.1591 56.9891 87.2841 57.4361 87.5341C57.8831 87.7803 58.2297 88.1477 58.4759 88.6364C58.7221 89.125 58.8452 89.7292 58.8452 90.4489V96H57.1463V90.6534C57.1463 90.0208 56.9816 89.5265 56.652 89.1705C56.3225 88.8106 55.8698 88.6307 55.2941 88.6307C54.9001 88.6307 54.5497 88.7159 54.2429 88.8864C53.9399 89.0568 53.6994 89.3068 53.5213 89.6364C53.3471 89.9621 53.26 90.3561 53.26 90.8182ZM65.0215 87.2727V88.6364H60.2544V87.2727H65.0215ZM61.5328 85.1818H63.2317V93.4375C63.2317 93.767 63.2809 94.0152 63.3794 94.1818C63.4779 94.3447 63.6048 94.4564 63.7601 94.517C63.9192 94.5739 64.0915 94.6023 64.2772 94.6023C64.4135 94.6023 64.5328 94.5928 64.6351 94.5739C64.7374 94.5549 64.8169 94.5398 64.8737 94.5284L65.1806 95.9318C65.0821 95.9697 64.9419 96.0076 64.7601 96.0455C64.5783 96.0871 64.351 96.1098 64.0783 96.1136C63.6313 96.1212 63.2147 96.0417 62.8283 95.875C62.4419 95.7083 62.1294 95.4508 61.8908 95.1023C61.6522 94.7538 61.5328 94.3163 61.5328 93.7898V85.1818ZM70.3923 96.1761C69.5325 96.1761 68.792 95.9924 68.1708 95.625C67.5533 95.2538 67.0761 94.733 66.7389 94.0625C66.4056 93.3883 66.2389 92.5985 66.2389 91.6932C66.2389 90.7992 66.4056 90.0114 66.7389 89.3295C67.0761 88.6477 67.5458 88.1155 68.148 87.733C68.7541 87.3504 69.4624 87.1591 70.273 87.1591C70.7655 87.1591 71.2427 87.2405 71.7048 87.4034C72.167 87.5663 72.5817 87.822 72.9492 88.1705C73.3166 88.5189 73.6064 88.9716 73.8185 89.5284C74.0306 90.0814 74.1367 90.7538 74.1367 91.5455V92.1477H67.1992V90.875H72.4719C72.4719 90.428 72.381 90.0322 72.1992 89.6875C72.0173 89.339 71.7617 89.0644 71.4321 88.8636C71.1064 88.6629 70.7238 88.5625 70.2844 88.5625C69.8071 88.5625 69.3905 88.6799 69.0344 88.9148C68.6821 89.1458 68.4094 89.4489 68.2162 89.8239C68.0268 90.1951 67.9321 90.5985 67.9321 91.0341V92.0284C67.9321 92.6117 68.0344 93.108 68.2389 93.517C68.4473 93.9261 68.737 94.2386 69.1083 94.4545C69.4795 94.6667 69.9132 94.7727 70.4094 94.7727C70.7314 94.7727 71.0249 94.7273 71.2901 94.6364C71.5552 94.5417 71.7844 94.4015 71.9776 94.2159C72.1708 94.0303 72.3185 93.8011 72.4208 93.5284L74.0287 93.8182C73.8999 94.2917 73.6689 94.7064 73.3355 95.0625C73.006 95.4148 72.5912 95.6894 72.0912 95.8864C71.595 96.0795 71.0287 96.1761 70.3923 96.1761ZM77.5445 90.8182V96H75.8456V87.2727H77.4763V88.6932H77.5842C77.785 88.2311 78.0994 87.8598 78.5274 87.5795C78.9592 87.2992 79.5028 87.1591 80.1581 87.1591C80.7528 87.1591 81.2736 87.2841 81.7206 87.5341C82.1676 87.7803 82.5142 88.1477 82.7604 88.6364C83.0066 89.125 83.1297 89.7292 83.1297 90.4489V96H81.4308V90.6534C81.4308 90.0208 81.2661 89.5265 80.9365 89.1705C80.607 88.8106 80.1543 88.6307 79.5786 88.6307C79.1846 88.6307 78.8342 88.7159 78.5274 88.8864C78.2244 89.0568 77.9839 89.3068 77.8058 89.6364C77.6316 89.9621 77.5445 90.3561 77.5445 90.8182ZM89.306 87.2727V88.6364H84.5389V87.2727H89.306ZM85.8173 85.1818H87.5162V93.4375C87.5162 93.767 87.5654 94.0152 87.6639 94.1818C87.7624 94.3447 87.8893 94.4564 88.0446 94.517C88.2037 94.5739 88.376 94.6023 88.5616 94.6023C88.698 94.6023 88.8173 94.5928 88.9196 94.5739C89.0219 94.5549 89.1014 94.5398 89.1582 94.5284L89.4651 95.9318C89.3666 95.9697 89.2264 96.0076 89.0446 96.0455C88.8628 96.0871 88.6355 96.1098 88.3628 96.1136C87.9158 96.1212 87.4991 96.0417 87.1128 95.875C86.7264 95.7083 86.4139 95.4508 86.1753 95.1023C85.9366 94.7538 85.8173 94.3163 85.8173 93.7898V85.1818ZM101.551 87.4205C101.49 86.8826 101.24 86.4659 100.801 86.1705C100.361 85.8712 99.8081 85.7216 99.1415 85.7216C98.6642 85.7216 98.2513 85.7973 97.9028 85.9489C97.5544 86.0966 97.2835 86.3011 97.0903 86.5625C96.9009 86.8201 96.8062 87.1136 96.8062 87.4432C96.8062 87.7197 96.8706 87.9583 96.9994 88.1591C97.132 88.3598 97.3044 88.5284 97.5165 88.6648C97.7324 88.7973 97.9634 88.9091 98.2097 89C98.4559 89.0871 98.6926 89.1591 98.9199 89.2159L100.056 89.5114C100.427 89.6023 100.808 89.7254 101.198 89.8807C101.588 90.036 101.95 90.2405 102.284 90.4943C102.617 90.7481 102.886 91.0625 103.09 91.4375C103.299 91.8125 103.403 92.2614 103.403 92.7841C103.403 93.4432 103.232 94.0284 102.891 94.5398C102.554 95.0511 102.064 95.4545 101.42 95.75C100.78 96.0455 100.005 96.1932 99.096 96.1932C98.2248 96.1932 97.471 96.0549 96.8347 95.7784C96.1983 95.5019 95.7002 95.1098 95.3403 94.6023C94.9805 94.0909 94.7816 93.4848 94.7437 92.7841H96.5051C96.5392 93.2045 96.6756 93.5549 96.9142 93.8352C97.1566 94.1117 97.4653 94.3182 97.8403 94.4545C98.2191 94.5871 98.6339 94.6534 99.0847 94.6534C99.5809 94.6534 100.022 94.5758 100.409 94.4205C100.799 94.2614 101.105 94.0417 101.329 93.7614C101.552 93.4773 101.664 93.1458 101.664 92.767C101.664 92.4223 101.566 92.1402 101.369 91.9205C101.176 91.7008 100.912 91.5189 100.579 91.375C100.249 91.2311 99.8763 91.1042 99.4597 90.9943L98.0847 90.6193C97.1528 90.3655 96.4142 89.9924 95.8687 89.5C95.3271 89.0076 95.0562 88.3561 95.0562 87.5455C95.0562 86.875 95.2381 86.2898 95.6017 85.7898C95.9653 85.2898 96.4578 84.9015 97.079 84.625C97.7002 84.3447 98.4009 84.2045 99.1812 84.2045C99.9691 84.2045 100.664 84.3428 101.266 84.6193C101.873 84.8958 102.35 85.2765 102.698 85.7614C103.047 86.2424 103.229 86.7955 103.244 87.4205H101.551ZM108.865 96.1761C108.02 96.1761 107.293 95.9848 106.683 95.6023C106.077 95.2159 105.611 94.6837 105.285 94.0057C104.959 93.3277 104.796 92.5511 104.796 91.6761C104.796 90.7898 104.963 90.0076 105.296 89.3295C105.63 88.6477 106.099 88.1155 106.706 87.733C107.312 87.3504 108.026 87.1591 108.848 87.1591C109.51 87.1591 110.101 87.2822 110.62 87.5284C111.139 87.7708 111.558 88.1117 111.876 88.5511C112.198 88.9905 112.389 89.5038 112.45 90.0909H110.796C110.706 89.6818 110.497 89.3295 110.171 89.0341C109.849 88.7386 109.418 88.5909 108.876 88.5909C108.402 88.5909 107.988 88.7159 107.632 88.9659C107.279 89.2121 107.005 89.5644 106.808 90.0227C106.611 90.4773 106.512 91.0152 106.512 91.6364C106.512 92.2727 106.609 92.822 106.802 93.2841C106.995 93.7462 107.268 94.1042 107.62 94.358C107.976 94.6117 108.395 94.7386 108.876 94.7386C109.198 94.7386 109.49 94.6799 109.751 94.5625C110.016 94.4413 110.238 94.2689 110.416 94.0455C110.598 93.822 110.724 93.553 110.796 93.2386H112.45C112.389 93.803 112.206 94.3068 111.899 94.75C111.592 95.1932 111.181 95.5417 110.666 95.7955C110.154 96.0492 109.554 96.1761 108.865 96.1761ZM114.091 96V87.2727H115.733V88.6591H115.824C115.983 88.1894 116.263 87.8201 116.664 87.5511C117.07 87.2784 117.528 87.142 118.039 87.142C118.146 87.142 118.271 87.1458 118.414 87.1534C118.562 87.161 118.678 87.1705 118.761 87.1818V88.8068C118.693 88.7879 118.572 88.767 118.397 88.7443C118.223 88.7178 118.049 88.7045 117.875 88.7045C117.473 88.7045 117.115 88.7898 116.801 88.9602C116.49 89.1269 116.244 89.3598 116.062 89.6591C115.88 89.9545 115.789 90.2917 115.789 90.6705V96H114.091ZM120.055 96V87.2727H121.754V96H120.055ZM120.913 85.9261C120.618 85.9261 120.364 85.8277 120.152 85.6307C119.943 85.4299 119.839 85.1913 119.839 84.9148C119.839 84.6345 119.943 84.3958 120.152 84.1989C120.364 83.9981 120.618 83.8977 120.913 83.8977C121.209 83.8977 121.461 83.9981 121.669 84.1989C121.881 84.3958 121.987 84.6345 121.987 84.9148C121.987 85.1913 121.881 85.4299 121.669 85.6307C121.461 85.8277 121.209 85.9261 120.913 85.9261ZM123.864 99.2727V87.2727H125.523V88.6875H125.665C125.763 88.5057 125.905 88.2955 126.091 88.0568C126.276 87.8182 126.534 87.6098 126.864 87.4318C127.193 87.25 127.629 87.1591 128.17 87.1591C128.875 87.1591 129.504 87.3371 130.057 87.6932C130.61 88.0492 131.044 88.5625 131.358 89.233C131.676 89.9034 131.835 90.7102 131.835 91.6534C131.835 92.5966 131.678 93.4053 131.364 94.0795C131.049 94.75 130.617 95.267 130.068 95.6307C129.519 95.9905 128.892 96.1705 128.187 96.1705C127.657 96.1705 127.223 96.0814 126.886 95.9034C126.553 95.7254 126.292 95.517 126.102 95.2784C125.913 95.0398 125.767 94.8277 125.665 94.642H125.562V99.2727H123.864ZM125.528 91.6364C125.528 92.25 125.617 92.7879 125.795 93.25C125.973 93.7121 126.231 94.0739 126.568 94.3352C126.905 94.5928 127.318 94.7216 127.807 94.7216C128.314 94.7216 128.739 94.5871 129.08 94.3182C129.42 94.0455 129.678 93.6761 129.852 93.2102C130.03 92.7443 130.119 92.2197 130.119 91.6364C130.119 91.0606 130.032 90.5436 129.858 90.0852C129.687 89.6269 129.43 89.2652 129.085 89C128.744 88.7348 128.318 88.6023 127.807 88.6023C127.314 88.6023 126.898 88.7292 126.557 88.983C126.22 89.2367 125.964 89.5909 125.79 90.0455C125.615 90.5 125.528 91.0303 125.528 91.6364ZM137.636 87.2727V88.6364H132.869V87.2727H137.636ZM134.148 85.1818H135.847V93.4375C135.847 93.767 135.896 94.0152 135.994 94.1818C136.093 94.3447 136.22 94.4564 136.375 94.517C136.534 94.5739 136.707 94.6023 136.892 94.6023C137.029 94.6023 137.148 94.5928 137.25 94.5739C137.352 94.5549 137.432 94.5398 137.489 94.5284L137.796 95.9318C137.697 95.9697 137.557 96.0076 137.375 96.0455C137.193 96.0871 136.966 96.1098 136.693 96.1136C136.246 96.1212 135.83 96.0417 135.443 95.875C135.057 95.7083 134.744 95.4508 134.506 95.1023C134.267 94.7538 134.148 94.3163 134.148 93.7898V85.1818ZM145.739 89.4034L144.199 89.6761C144.135 89.4792 144.032 89.2917 143.892 89.1136C143.756 88.9356 143.57 88.7898 143.335 88.6761C143.101 88.5625 142.807 88.5057 142.455 88.5057C141.974 88.5057 141.572 88.6136 141.25 88.8295C140.928 89.0417 140.767 89.3163 140.767 89.6534C140.767 89.9451 140.875 90.1799 141.091 90.358C141.307 90.536 141.656 90.6818 142.137 90.7955L143.523 91.1136C144.326 91.2992 144.924 91.5852 145.318 91.9716C145.712 92.358 145.909 92.8598 145.909 93.4773C145.909 94 145.758 94.4659 145.455 94.875C145.156 95.2803 144.737 95.5985 144.199 95.8295C143.665 96.0606 143.046 96.1761 142.341 96.1761C141.364 96.1761 140.567 95.9678 139.949 95.5511C139.332 95.1307 138.953 94.5341 138.813 93.7614L140.455 93.5114C140.557 93.9394 140.767 94.2633 141.085 94.483C141.404 94.6989 141.818 94.8068 142.33 94.8068C142.887 94.8068 143.332 94.6913 143.665 94.4602C143.998 94.2254 144.165 93.9394 144.165 93.6023C144.165 93.3295 144.063 93.1004 143.858 92.9148C143.657 92.7292 143.349 92.589 142.932 92.4943L141.455 92.1705C140.64 91.9848 140.038 91.6894 139.648 91.2841C139.262 90.8788 139.068 90.3655 139.068 89.7443C139.068 89.2292 139.212 88.7784 139.5 88.392C139.788 88.0057 140.186 87.7045 140.693 87.4886C141.201 87.2689 141.782 87.1591 142.438 87.1591C143.381 87.1591 144.123 87.3636 144.665 87.7727C145.207 88.178 145.565 88.7216 145.739 89.4034Z" fill="white"/>
<rect x="480" y="2" width="176" height="176" rx="6" fill="#0D99FF"/>
<path d="M536.257 96H532.49V84.3636H536.377C537.517 84.3636 538.496 84.5966 539.314 85.0625C540.132 85.5246 540.759 86.1894 541.195 87.0568C541.634 87.9205 541.854 88.9564 541.854 90.1648C541.854 91.3769 541.632 92.4186 541.189 93.2898C540.75 94.161 540.113 94.8314 539.28 95.3011C538.447 95.767 537.439 96 536.257 96ZM534.246 94.4659H536.161C537.047 94.4659 537.784 94.2992 538.371 93.9659C538.958 93.6288 539.397 93.142 539.689 92.5057C539.981 91.8655 540.127 91.0852 540.127 90.1648C540.127 89.2519 539.981 88.4773 539.689 87.8409C539.401 87.2045 538.971 86.7216 538.399 86.392C537.827 86.0625 537.117 85.8977 536.269 85.8977H534.246V94.4659ZM547.486 96.1761C546.626 96.1761 545.886 95.9924 545.265 95.625C544.647 95.2538 544.17 94.733 543.833 94.0625C543.499 93.3883 543.333 92.5985 543.333 91.6932C543.333 90.7992 543.499 90.0114 543.833 89.3295C544.17 88.6477 544.64 88.1155 545.242 87.733C545.848 87.3504 546.556 87.1591 547.367 87.1591C547.859 87.1591 548.336 87.2405 548.799 87.4034C549.261 87.5663 549.675 87.822 550.043 88.1705C550.41 88.5189 550.7 88.9716 550.912 89.5284C551.124 90.0814 551.23 90.7538 551.23 91.5455V92.1477H544.293V90.875H549.566C549.566 90.428 549.475 90.0322 549.293 89.6875C549.111 89.339 548.855 89.0644 548.526 88.8636C548.2 88.6629 547.818 88.5625 547.378 88.5625C546.901 88.5625 546.484 88.6799 546.128 88.9148C545.776 89.1458 545.503 89.4489 545.31 89.8239C545.121 90.1951 545.026 90.5985 545.026 91.0341V92.0284C545.026 92.6117 545.128 93.108 545.333 93.517C545.541 93.9261 545.831 94.2386 546.202 94.4545C546.573 94.6667 547.007 94.7727 547.503 94.7727C547.825 94.7727 548.119 94.7273 548.384 94.6364C548.649 94.5417 548.878 94.4015 549.071 94.2159C549.265 94.0303 549.412 93.8011 549.515 93.5284L551.122 93.8182C550.994 94.2917 550.763 94.7064 550.429 95.0625C550.1 95.4148 549.685 95.6894 549.185 95.8864C548.689 96.0795 548.122 96.1761 547.486 96.1761ZM560.155 87.2727L556.99 96H555.172L552.002 87.2727H553.826L556.036 93.9886H556.127L558.331 87.2727H560.155ZM565.197 85.875V84.3636H574.202V85.875H570.572V96H568.822V85.875H565.197ZM578.291 96.1761C577.472 96.1761 576.758 95.9886 576.149 95.6136C575.539 95.2386 575.065 94.714 574.728 94.0398C574.391 93.3655 574.222 92.5777 574.222 91.6761C574.222 90.7708 574.391 89.9792 574.728 89.3011C575.065 88.6231 575.539 88.0966 576.149 87.7216C576.758 87.3466 577.472 87.1591 578.291 87.1591C579.109 87.1591 579.823 87.3466 580.433 87.7216C581.043 88.0966 581.516 88.6231 581.853 89.3011C582.19 89.9792 582.359 90.7708 582.359 91.6761C582.359 92.5777 582.19 93.3655 581.853 94.0398C581.516 94.714 581.043 95.2386 580.433 95.6136C579.823 95.9886 579.109 96.1761 578.291 96.1761ZM578.296 94.75C578.827 94.75 579.266 94.6098 579.614 94.3295C579.963 94.0492 580.221 93.6761 580.387 93.2102C580.558 92.7443 580.643 92.2311 580.643 91.6705C580.643 91.1136 580.558 90.6023 580.387 90.1364C580.221 89.6667 579.963 89.2898 579.614 89.0057C579.266 88.7216 578.827 88.5795 578.296 88.5795C577.762 88.5795 577.319 88.7216 576.967 89.0057C576.618 89.2898 576.359 89.6667 576.188 90.1364C576.022 90.6023 575.938 91.1136 575.938 91.6705C575.938 92.2311 576.022 92.7443 576.188 93.2102C576.359 93.6761 576.618 94.0492 576.967 94.3295C577.319 94.6098 577.762 94.75 578.296 94.75ZM587.755 96.1761C586.937 96.1761 586.223 95.9886 585.613 95.6136C585.003 95.2386 584.53 94.714 584.193 94.0398C583.856 93.3655 583.687 92.5777 583.687 91.6761C583.687 90.7708 583.856 89.9792 584.193 89.3011C584.53 88.6231 585.003 88.0966 585.613 87.7216C586.223 87.3466 586.937 87.1591 587.755 87.1591C588.573 87.1591 589.287 87.3466 589.897 87.7216C590.507 88.0966 590.981 88.6231 591.318 89.3011C591.655 89.9792 591.823 90.7708 591.823 91.6761C591.823 92.5777 591.655 93.3655 591.318 94.0398C590.981 94.714 590.507 95.2386 589.897 95.6136C589.287 95.9886 588.573 96.1761 587.755 96.1761ZM587.761 94.75C588.291 94.75 588.731 94.6098 589.079 94.3295C589.428 94.0492 589.685 93.6761 589.852 93.2102C590.022 92.7443 590.108 92.2311 590.108 91.6705C590.108 91.1136 590.022 90.6023 589.852 90.1364C589.685 89.6667 589.428 89.2898 589.079 89.0057C588.731 88.7216 588.291 88.5795 587.761 88.5795C587.227 88.5795 586.784 88.7216 586.431 89.0057C586.083 89.2898 585.823 89.6667 585.653 90.1364C585.486 90.6023 585.403 91.1136 585.403 91.6705C585.403 92.2311 585.486 92.7443 585.653 93.2102C585.823 93.6761 586.083 94.0492 586.431 94.3295C586.784 94.6098 587.227 94.75 587.761 94.75ZM595.243 84.3636V96H593.544V84.3636H595.243ZM603.892 89.4034L602.352 89.6761C602.288 89.4792 602.185 89.2917 602.045 89.1136C601.909 88.9356 601.723 88.7898 601.488 88.6761C601.254 88.5625 600.96 88.5057 600.608 88.5057C600.127 88.5057 599.725 88.6136 599.403 88.8295C599.081 89.0417 598.92 89.3163 598.92 89.6534C598.92 89.9451 599.028 90.1799 599.244 90.358C599.46 90.536 599.809 90.6818 600.29 90.7955L601.676 91.1136C602.479 91.2992 603.077 91.5852 603.471 91.9716C603.865 92.358 604.062 92.8598 604.062 93.4773C604.062 94 603.911 94.4659 603.608 94.875C603.309 95.2803 602.89 95.5985 602.352 95.8295C601.818 96.0606 601.199 96.1761 600.494 96.1761C599.517 96.1761 598.72 95.9678 598.102 95.5511C597.485 95.1307 597.106 94.5341 596.966 93.7614L598.608 93.5114C598.71 93.9394 598.92 94.2633 599.238 94.483C599.557 94.6989 599.971 94.8068 600.483 94.8068C601.04 94.8068 601.485 94.6913 601.818 94.4602C602.151 94.2254 602.318 93.9394 602.318 93.6023C602.318 93.3295 602.216 93.1004 602.011 92.9148C601.81 92.7292 601.502 92.589 601.085 92.4943L599.608 92.1705C598.793 91.9848 598.191 91.6894 597.801 91.2841C597.415 90.8788 597.221 90.3655 597.221 89.7443C597.221 89.2292 597.365 88.7784 597.653 88.392C597.941 88.0057 598.339 87.7045 598.846 87.4886C599.354 87.2689 599.935 87.1591 600.591 87.1591C601.534 87.1591 602.276 87.3636 602.818 87.7727C603.36 88.178 603.718 88.7216 603.892 89.4034Z" fill="white"/>
<rect x="720" y="2" width="176" height="176" rx="6" fill="#0D99FF"/>
<path d="M747.323 96V84.3636H754.618V85.875H749.079V89.4205H754.238V90.9261H749.079V94.4886H754.687V96H747.323ZM757.992 87.2727L759.918 90.6705L761.861 87.2727H763.719L760.998 91.6364L763.742 96H761.884L759.918 92.7386L757.958 96H756.094L758.81 91.6364L756.128 87.2727H757.992ZM769.362 87.2727V88.6364H764.594V87.2727H769.362ZM765.873 85.1818H767.572V93.4375C767.572 93.767 767.621 94.0152 767.719 94.1818C767.818 94.3447 767.945 94.4564 768.1 94.517C768.259 94.5739 768.432 94.6023 768.617 94.6023C768.754 94.6023 768.873 94.5928 768.975 94.5739C769.077 94.5549 769.157 94.5398 769.214 94.5284L769.521 95.9318C769.422 95.9697 769.282 96.0076 769.1 96.0455C768.918 96.0871 768.691 96.1098 768.418 96.1136C767.971 96.1212 767.555 96.0417 767.168 95.875C766.782 95.7083 766.469 95.4508 766.231 95.1023C765.992 94.7538 765.873 94.3163 765.873 93.7898V85.1818ZM774.732 96.1761C773.873 96.1761 773.132 95.9924 772.511 95.625C771.893 95.2538 771.416 94.733 771.079 94.0625C770.746 93.3883 770.579 92.5985 770.579 91.6932C770.579 90.7992 770.746 90.0114 771.079 89.3295C771.416 88.6477 771.886 88.1155 772.488 87.733C773.094 87.3504 773.802 87.1591 774.613 87.1591C775.106 87.1591 775.583 87.2405 776.045 87.4034C776.507 87.5663 776.922 87.822 777.289 88.1705C777.657 88.5189 777.946 88.9716 778.159 89.5284C778.371 90.0814 778.477 90.7538 778.477 91.5455V92.1477H771.539V90.875H776.812C776.812 90.428 776.721 90.0322 776.539 89.6875C776.357 89.339 776.102 89.0644 775.772 88.8636C775.446 88.6629 775.064 88.5625 774.624 88.5625C774.147 88.5625 773.731 88.6799 773.374 88.9148C773.022 89.1458 772.749 89.4489 772.556 89.8239C772.367 90.1951 772.272 90.5985 772.272 91.0341V92.0284C772.272 92.6117 772.374 93.108 772.579 93.517C772.787 93.9261 773.077 94.2386 773.448 94.4545C773.82 94.6667 774.253 94.7727 774.749 94.7727C775.071 94.7727 775.365 94.7273 775.63 94.6364C775.895 94.5417 776.124 94.4015 776.318 94.2159C776.511 94.0303 776.659 93.8011 776.761 93.5284L778.369 93.8182C778.24 94.2917 778.009 94.7064 777.676 95.0625C777.346 95.4148 776.931 95.6894 776.431 95.8864C775.935 96.0795 775.369 96.1761 774.732 96.1761ZM781.885 90.8182V96H780.186V87.2727H781.816V88.6932H781.924C782.125 88.2311 782.439 87.8598 782.867 87.5795C783.299 87.2992 783.843 87.1591 784.498 87.1591C785.093 87.1591 785.614 87.2841 786.061 87.5341C786.508 87.7803 786.854 88.1477 787.1 88.6364C787.347 89.125 787.47 89.7292 787.47 90.4489V96H785.771V90.6534C785.771 90.0208 785.606 89.5265 785.277 89.1705C784.947 88.8106 784.494 88.6307 783.919 88.6307C783.525 88.6307 783.174 88.7159 782.867 88.8864C782.564 89.0568 782.324 89.3068 782.146 89.6364C781.972 89.9621 781.885 90.3561 781.885 90.8182ZM796.112 89.4034L794.572 89.6761C794.508 89.4792 794.406 89.2917 794.265 89.1136C794.129 88.9356 793.943 88.7898 793.709 88.6761C793.474 88.5625 793.18 88.5057 792.828 88.5057C792.347 88.5057 791.945 88.6136 791.623 88.8295C791.301 89.0417 791.14 89.3163 791.14 89.6534C791.14 89.9451 791.248 90.1799 791.464 90.358C791.68 90.536 792.029 90.6818 792.51 90.7955L793.896 91.1136C794.699 91.2992 795.298 91.5852 795.691 91.9716C796.085 92.358 796.282 92.8598 796.282 93.4773C796.282 94 796.131 94.4659 795.828 94.875C795.529 95.2803 795.11 95.5985 794.572 95.8295C794.038 96.0606 793.419 96.1761 792.714 96.1761C791.737 96.1761 790.94 95.9678 790.322 95.5511C789.705 95.1307 789.326 94.5341 789.186 93.7614L790.828 93.5114C790.93 93.9394 791.14 94.2633 791.459 94.483C791.777 94.6989 792.191 94.8068 792.703 94.8068C793.26 94.8068 793.705 94.6913 794.038 94.4602C794.371 94.2254 794.538 93.9394 794.538 93.6023C794.538 93.3295 794.436 93.1004 794.231 92.9148C794.031 92.7292 793.722 92.589 793.305 92.4943L791.828 92.1705C791.013 91.9848 790.411 91.6894 790.021 91.2841C789.635 90.8788 789.441 90.3655 789.441 89.7443C789.441 89.2292 789.585 88.7784 789.873 88.392C790.161 88.0057 790.559 87.7045 791.066 87.4886C791.574 87.2689 792.156 87.1591 792.811 87.1591C793.754 87.1591 794.496 87.3636 795.038 87.7727C795.58 88.178 795.938 88.7216 796.112 89.4034ZM797.974 96V87.2727H799.673V96H797.974ZM798.832 85.9261C798.537 85.9261 798.283 85.8277 798.071 85.6307C797.863 85.4299 797.758 85.1913 797.758 84.9148C797.758 84.6345 797.863 84.3958 798.071 84.1989C798.283 83.9981 798.537 83.8977 798.832 83.8977C799.128 83.8977 799.38 83.9981 799.588 84.1989C799.8 84.3958 799.906 84.6345 799.906 84.9148C799.906 85.1913 799.8 85.4299 799.588 85.6307C799.38 85.8277 799.128 85.9261 798.832 85.9261ZM805.459 96.1761C804.641 96.1761 803.927 95.9886 803.317 95.6136C802.707 95.2386 802.233 94.714 801.896 94.0398C801.559 93.3655 801.391 92.5777 801.391 91.6761C801.391 90.7708 801.559 89.9792 801.896 89.3011C802.233 88.6231 802.707 88.0966 803.317 87.7216C803.927 87.3466 804.641 87.1591 805.459 87.1591C806.277 87.1591 806.991 87.3466 807.601 87.7216C808.211 88.0966 808.684 88.6231 809.021 89.3011C809.358 89.9792 809.527 90.7708 809.527 91.6761C809.527 92.5777 809.358 93.3655 809.021 94.0398C808.684 94.714 808.211 95.2386 807.601 95.6136C806.991 95.9886 806.277 96.1761 805.459 96.1761ZM805.464 94.75C805.995 94.75 806.434 94.6098 806.783 94.3295C807.131 94.0492 807.389 93.6761 807.555 93.2102C807.726 92.7443 807.811 92.2311 807.811 91.6705C807.811 91.1136 807.726 90.6023 807.555 90.1364C807.389 89.6667 807.131 89.2898 806.783 89.0057C806.434 88.7216 805.995 88.5795 805.464 88.5795C804.93 88.5795 804.487 88.7216 804.135 89.0057C803.786 89.2898 803.527 89.6667 803.357 90.1364C803.19 90.6023 803.107 91.1136 803.107 91.6705C803.107 92.2311 803.19 92.7443 803.357 93.2102C803.527 93.6761 803.786 94.0492 804.135 94.3295C804.487 94.6098 804.93 94.75 805.464 94.75ZM812.946 90.8182V96H811.247V87.2727H812.878V88.6932H812.986C813.187 88.2311 813.501 87.8598 813.929 87.5795C814.361 87.2992 814.904 87.1591 815.56 87.1591C816.154 87.1591 816.675 87.2841 817.122 87.5341C817.569 87.7803 817.916 88.1477 818.162 88.6364C818.408 89.125 818.531 89.7292 818.531 90.4489V96H816.833V90.6534C816.833 90.0208 816.668 89.5265 816.338 89.1705C816.009 88.8106 815.556 88.6307 814.98 88.6307C814.586 88.6307 814.236 88.7159 813.929 88.8864C813.626 89.0568 813.386 89.3068 813.208 89.6364C813.033 89.9621 812.946 90.3561 812.946 90.8182ZM824.829 96V84.3636H828.976C829.882 84.3636 830.632 84.5284 831.226 84.858C831.821 85.1875 832.266 85.6383 832.561 86.2102C832.857 86.7784 833.005 87.4186 833.005 88.1307C833.005 88.8466 832.855 89.4905 832.556 90.0625C832.26 90.6307 831.813 91.0814 831.215 91.4148C830.62 91.7443 829.872 91.9091 828.971 91.9091H826.118V90.4205H828.811C829.383 90.4205 829.847 90.322 830.204 90.125C830.56 89.9242 830.821 89.6515 830.988 89.3068C831.154 88.9621 831.238 88.5701 831.238 88.1307C831.238 87.6913 831.154 87.3011 830.988 86.9602C830.821 86.6193 830.558 86.3523 830.198 86.1591C829.842 85.9659 829.372 85.8693 828.789 85.8693H826.584V96H824.829ZM837.212 96.1932C836.659 96.1932 836.159 96.0909 835.712 95.8864C835.265 95.678 834.911 95.3769 834.65 94.983C834.392 94.589 834.263 94.1061 834.263 93.5341C834.263 93.0417 834.358 92.6364 834.547 92.3182C834.737 92 834.993 91.7481 835.314 91.5625C835.636 91.3769 835.996 91.2367 836.394 91.142C836.792 91.0473 837.197 90.9754 837.61 90.9261C838.133 90.8655 838.557 90.8163 838.883 90.7784C839.208 90.7367 839.445 90.6705 839.593 90.5795C839.741 90.4886 839.814 90.3409 839.814 90.1364V90.0966C839.814 89.6004 839.674 89.2159 839.394 88.9432C839.118 88.6705 838.705 88.5341 838.155 88.5341C837.583 88.5341 837.133 88.661 836.803 88.9148C836.477 89.1648 836.252 89.4432 836.127 89.75L834.53 89.3864C834.72 88.8561 834.996 88.428 835.36 88.1023C835.727 87.7727 836.15 87.5341 836.627 87.3864C837.104 87.2348 837.606 87.1591 838.133 87.1591C838.481 87.1591 838.85 87.2008 839.241 87.2841C839.635 87.3636 840.002 87.5114 840.343 87.7273C840.688 87.9432 840.97 88.2519 841.189 88.6534C841.409 89.0511 841.519 89.5682 841.519 90.2045V96H839.86V94.8068H839.792C839.682 95.0265 839.517 95.2424 839.297 95.4545C839.078 95.6667 838.796 95.8428 838.451 95.983C838.106 96.1231 837.693 96.1932 837.212 96.1932ZM837.582 94.8295C838.051 94.8295 838.453 94.7367 838.786 94.5511C839.123 94.3655 839.379 94.1231 839.553 93.8239C839.731 93.5208 839.82 93.197 839.82 92.8523V91.7273C839.76 91.7879 839.642 91.8447 839.468 91.8977C839.297 91.947 839.102 91.9905 838.883 92.0284C838.663 92.0625 838.449 92.0947 838.241 92.125C838.032 92.1515 837.858 92.1742 837.718 92.1932C837.388 92.2348 837.087 92.3049 836.814 92.4034C836.546 92.5019 836.33 92.6439 836.167 92.8295C836.008 93.0114 835.928 93.2538 835.928 93.5568C835.928 93.9773 836.083 94.2955 836.394 94.5114C836.705 94.7235 837.1 94.8295 837.582 94.8295ZM847.265 99.4545C846.572 99.4545 845.975 99.3636 845.475 99.1818C844.979 99 844.574 98.7595 844.259 98.4602C843.945 98.161 843.71 97.8333 843.555 97.4773L845.015 96.875C845.117 97.0417 845.254 97.2178 845.424 97.4034C845.598 97.5928 845.833 97.7538 846.129 97.8864C846.428 98.0189 846.812 98.0852 847.282 98.0852C847.926 98.0852 848.458 97.928 848.879 97.6136C849.299 97.303 849.509 96.8068 849.509 96.125V94.4091H849.401C849.299 94.5947 849.151 94.8011 848.958 95.0284C848.769 95.2557 848.507 95.4527 848.174 95.6193C847.841 95.786 847.407 95.8693 846.873 95.8693C846.183 95.8693 845.562 95.7083 845.009 95.3864C844.46 95.0606 844.024 94.5814 843.702 93.9489C843.384 93.3125 843.225 92.5303 843.225 91.6023C843.225 90.6742 843.382 89.8788 843.697 89.2159C844.015 88.553 844.45 88.0455 845.004 87.6932C845.557 87.3371 846.183 87.1591 846.884 87.1591C847.426 87.1591 847.863 87.25 848.197 87.4318C848.53 87.6098 848.79 87.8182 848.975 88.0568C849.165 88.2955 849.31 88.5057 849.413 88.6875H849.538V87.2727H851.202V96.1932C851.202 96.9432 851.028 97.5587 850.68 98.0398C850.331 98.5208 849.86 98.8769 849.265 99.108C848.674 99.339 848.007 99.4545 847.265 99.4545ZM847.248 94.4602C847.736 94.4602 848.149 94.3466 848.486 94.1193C848.827 93.8883 849.085 93.5587 849.259 93.1307C849.437 92.6989 849.526 92.1818 849.526 91.5795C849.526 90.9924 849.439 90.4754 849.265 90.0284C849.091 89.5814 848.835 89.233 848.498 88.983C848.161 88.7292 847.744 88.6023 847.248 88.6023C846.736 88.6023 846.31 88.7348 845.969 89C845.629 89.2614 845.371 89.6174 845.197 90.0682C845.026 90.5189 844.941 91.0227 844.941 91.5795C844.941 92.1515 845.028 92.6534 845.202 93.0852C845.377 93.517 845.634 93.8542 845.975 94.0966C846.32 94.339 846.744 94.4602 847.248 94.4602ZM857.066 96.1761C856.206 96.1761 855.466 95.9924 854.845 95.625C854.227 95.2538 853.75 94.733 853.413 94.0625C853.079 93.3883 852.913 92.5985 852.913 91.6932C852.913 90.7992 853.079 90.0114 853.413 89.3295C853.75 88.6477 854.22 88.1155 854.822 87.733C855.428 87.3504 856.136 87.1591 856.947 87.1591C857.439 87.1591 857.917 87.2405 858.379 87.4034C858.841 87.5663 859.256 87.822 859.623 88.1705C859.99 88.5189 860.28 88.9716 860.492 89.5284C860.704 90.0814 860.81 90.7538 860.81 91.5455V92.1477H853.873V90.875H859.146C859.146 90.428 859.055 90.0322 858.873 89.6875C858.691 89.339 858.435 89.0644 858.106 88.8636C857.78 88.6629 857.398 88.5625 856.958 88.5625C856.481 88.5625 856.064 88.6799 855.708 88.9148C855.356 89.1458 855.083 89.4489 854.89 89.8239C854.701 90.1951 854.606 90.5985 854.606 91.0341V92.0284C854.606 92.6117 854.708 93.108 854.913 93.517C855.121 93.9261 855.411 94.2386 855.782 94.4545C856.153 94.6667 856.587 94.7727 857.083 94.7727C857.405 94.7727 857.699 94.7273 857.964 94.6364C858.229 94.5417 858.458 94.4015 858.651 94.2159C858.845 94.0303 858.992 93.8011 859.095 93.5284L860.703 93.8182C860.574 94.2917 860.343 94.7064 860.009 95.0625C859.68 95.4148 859.265 95.6894 858.765 95.8864C858.269 96.0795 857.703 96.1761 857.066 96.1761ZM869.059 89.4034L867.519 89.6761C867.455 89.4792 867.353 89.2917 867.213 89.1136C867.076 88.9356 866.891 88.7898 866.656 88.6761C866.421 88.5625 866.127 88.5057 865.775 88.5057C865.294 88.5057 864.893 88.6136 864.571 88.8295C864.249 89.0417 864.088 89.3163 864.088 89.6534C864.088 89.9451 864.196 90.1799 864.411 90.358C864.627 90.536 864.976 90.6818 865.457 90.7955L866.843 91.1136C867.646 91.2992 868.245 91.5852 868.639 91.9716C869.033 92.358 869.23 92.8598 869.23 93.4773C869.23 94 869.078 94.4659 868.775 94.875C868.476 95.2803 868.057 95.5985 867.519 95.8295C866.985 96.0606 866.366 96.1761 865.661 96.1761C864.684 96.1761 863.887 95.9678 863.269 95.5511C862.652 95.1307 862.273 94.5341 862.133 93.7614L863.775 93.5114C863.877 93.9394 864.088 94.2633 864.406 94.483C864.724 94.6989 865.139 94.8068 865.65 94.8068C866.207 94.8068 866.652 94.6913 866.985 94.4602C867.319 94.2254 867.485 93.9394 867.485 93.6023C867.485 93.3295 867.383 93.1004 867.179 92.9148C866.978 92.7292 866.669 92.589 866.252 92.4943L864.775 92.1705C863.961 91.9848 863.358 91.6894 862.968 91.2841C862.582 90.8788 862.389 90.3655 862.389 89.7443C862.389 89.2292 862.533 88.7784 862.821 88.392C863.108 88.0057 863.506 87.7045 864.014 87.4886C864.521 87.2689 865.103 87.1591 865.758 87.1591C866.701 87.1591 867.444 87.3636 867.985 87.7727C868.527 88.178 868.885 88.7216 869.059 89.4034Z" fill="white"/>
<path fill-rule="evenodd" clip-rule="evenodd" d="M465.5 296C465.5 293.514 467.514 291.5 470 291.5H620.5V335C620.5 338.589 623.411 341.5 627 341.5H670.5V460C670.5 462.486 668.486 464.5 666 464.5H470C467.514 464.5 465.5 462.486 465.5 460V296ZM668.379 338.5L623.5 293.621V335C623.5 336.933 625.067 338.5 627 338.5H668.379Z" fill="#E4CCFF"/>
<path d="M492.003 372V360.364H496.264C497.09 360.364 497.774 360.5 498.316 360.773C498.857 361.042 499.263 361.407 499.531 361.869C499.8 362.328 499.935 362.845 499.935 363.42C499.935 363.905 499.846 364.314 499.668 364.648C499.49 364.977 499.251 365.242 498.952 365.443C498.656 365.64 498.331 365.784 497.975 365.875V365.989C498.361 366.008 498.738 366.133 499.105 366.364C499.477 366.591 499.783 366.915 500.026 367.335C500.268 367.756 500.389 368.267 500.389 368.869C500.389 369.464 500.249 369.998 499.969 370.472C499.692 370.941 499.264 371.314 498.685 371.591C498.105 371.864 497.365 372 496.463 372H492.003ZM493.759 370.494H496.293C497.134 370.494 497.736 370.331 498.1 370.006C498.463 369.68 498.645 369.273 498.645 368.784C498.645 368.417 498.552 368.08 498.367 367.773C498.181 367.466 497.916 367.222 497.571 367.04C497.23 366.858 496.825 366.767 496.355 366.767H493.759V370.494ZM493.759 365.398H496.111C496.505 365.398 496.859 365.322 497.173 365.17C497.492 365.019 497.744 364.807 497.929 364.534C498.119 364.258 498.213 363.932 498.213 363.557C498.213 363.076 498.045 362.672 497.708 362.347C497.37 362.021 496.853 361.858 496.156 361.858H493.759V365.398ZM504.699 372.193C504.146 372.193 503.646 372.091 503.199 371.886C502.752 371.678 502.398 371.377 502.137 370.983C501.879 370.589 501.75 370.106 501.75 369.534C501.75 369.042 501.845 368.636 502.034 368.318C502.224 368 502.479 367.748 502.801 367.562C503.123 367.377 503.483 367.237 503.881 367.142C504.279 367.047 504.684 366.975 505.097 366.926C505.62 366.866 506.044 366.816 506.37 366.778C506.695 366.737 506.932 366.67 507.08 366.58C507.228 366.489 507.301 366.341 507.301 366.136V366.097C507.301 365.6 507.161 365.216 506.881 364.943C506.604 364.67 506.192 364.534 505.642 364.534C505.07 364.534 504.62 364.661 504.29 364.915C503.964 365.165 503.739 365.443 503.614 365.75L502.017 365.386C502.207 364.856 502.483 364.428 502.847 364.102C503.214 363.773 503.637 363.534 504.114 363.386C504.591 363.235 505.093 363.159 505.62 363.159C505.968 363.159 506.337 363.201 506.728 363.284C507.122 363.364 507.489 363.511 507.83 363.727C508.175 363.943 508.457 364.252 508.676 364.653C508.896 365.051 509.006 365.568 509.006 366.205V372H507.347V370.807H507.279C507.169 371.027 507.004 371.242 506.784 371.455C506.565 371.667 506.283 371.843 505.938 371.983C505.593 372.123 505.18 372.193 504.699 372.193ZM505.069 370.83C505.538 370.83 505.94 370.737 506.273 370.551C506.61 370.366 506.866 370.123 507.04 369.824C507.218 369.521 507.307 369.197 507.307 368.852V367.727C507.247 367.788 507.129 367.845 506.955 367.898C506.784 367.947 506.589 367.991 506.37 368.028C506.15 368.062 505.936 368.095 505.728 368.125C505.519 368.152 505.345 368.174 505.205 368.193C504.875 368.235 504.574 368.305 504.301 368.403C504.033 368.502 503.817 368.644 503.654 368.83C503.495 369.011 503.415 369.254 503.415 369.557C503.415 369.977 503.57 370.295 503.881 370.511C504.192 370.723 504.587 370.83 505.069 370.83ZM514.769 372.176C513.924 372.176 513.197 371.985 512.587 371.602C511.981 371.216 511.515 370.684 511.189 370.006C510.864 369.328 510.701 368.551 510.701 367.676C510.701 366.79 510.867 366.008 511.201 365.33C511.534 364.648 512.004 364.116 512.61 363.733C513.216 363.35 513.93 363.159 514.752 363.159C515.415 363.159 516.006 363.282 516.525 363.528C517.044 363.771 517.462 364.112 517.78 364.551C518.102 364.991 518.294 365.504 518.354 366.091H516.701C516.61 365.682 516.402 365.33 516.076 365.034C515.754 364.739 515.322 364.591 514.78 364.591C514.307 364.591 513.892 364.716 513.536 364.966C513.184 365.212 512.909 365.564 512.712 366.023C512.515 366.477 512.417 367.015 512.417 367.636C512.417 368.273 512.513 368.822 512.706 369.284C512.9 369.746 513.172 370.104 513.525 370.358C513.881 370.612 514.299 370.739 514.78 370.739C515.102 370.739 515.394 370.68 515.655 370.562C515.92 370.441 516.142 370.269 516.32 370.045C516.502 369.822 516.629 369.553 516.701 369.239H518.354C518.294 369.803 518.11 370.307 517.803 370.75C517.496 371.193 517.085 371.542 516.57 371.795C516.059 372.049 515.458 372.176 514.769 372.176ZM521.557 369.04L521.546 366.966H521.842L525.319 363.273H527.353L523.387 367.477H523.12L521.557 369.04ZM519.995 372V360.364H521.694V372H519.995ZM525.506 372L522.381 367.852L523.552 366.665L527.592 372H525.506ZM532.025 375.455C531.332 375.455 530.735 375.364 530.235 375.182C529.739 375 529.334 374.759 529.019 374.46C528.705 374.161 528.47 373.833 528.315 373.477L529.775 372.875C529.877 373.042 530.014 373.218 530.184 373.403C530.358 373.593 530.593 373.754 530.889 373.886C531.188 374.019 531.572 374.085 532.042 374.085C532.686 374.085 533.218 373.928 533.639 373.614C534.059 373.303 534.269 372.807 534.269 372.125V370.409H534.161C534.059 370.595 533.911 370.801 533.718 371.028C533.529 371.256 533.267 371.453 532.934 371.619C532.601 371.786 532.167 371.869 531.633 371.869C530.943 371.869 530.322 371.708 529.769 371.386C529.22 371.061 528.784 370.581 528.462 369.949C528.144 369.312 527.985 368.53 527.985 367.602C527.985 366.674 528.142 365.879 528.457 365.216C528.775 364.553 529.21 364.045 529.764 363.693C530.317 363.337 530.943 363.159 531.644 363.159C532.186 363.159 532.623 363.25 532.957 363.432C533.29 363.61 533.55 363.818 533.735 364.057C533.925 364.295 534.07 364.506 534.173 364.688H534.298V363.273H535.962V372.193C535.962 372.943 535.788 373.559 535.44 374.04C535.091 374.521 534.62 374.877 534.025 375.108C533.434 375.339 532.767 375.455 532.025 375.455ZM532.008 370.46C532.496 370.46 532.909 370.347 533.246 370.119C533.587 369.888 533.845 369.559 534.019 369.131C534.197 368.699 534.286 368.182 534.286 367.58C534.286 366.992 534.199 366.475 534.025 366.028C533.851 365.581 533.595 365.233 533.258 364.983C532.921 364.729 532.504 364.602 532.008 364.602C531.496 364.602 531.07 364.735 530.729 365C530.389 365.261 530.131 365.617 529.957 366.068C529.786 366.519 529.701 367.023 529.701 367.58C529.701 368.152 529.788 368.653 529.962 369.085C530.137 369.517 530.394 369.854 530.735 370.097C531.08 370.339 531.504 370.46 532.008 370.46ZM538.065 372V363.273H539.707V364.659H539.798C539.957 364.189 540.237 363.82 540.639 363.551C541.044 363.278 541.502 363.142 542.014 363.142C542.12 363.142 542.245 363.146 542.389 363.153C542.536 363.161 542.652 363.17 542.735 363.182V364.807C542.667 364.788 542.546 364.767 542.372 364.744C542.197 364.718 542.023 364.705 541.849 364.705C541.447 364.705 541.089 364.79 540.775 364.96C540.464 365.127 540.218 365.36 540.036 365.659C539.855 365.955 539.764 366.292 539.764 366.67V372H538.065ZM547.393 372.176C546.575 372.176 545.861 371.989 545.251 371.614C544.641 371.239 544.168 370.714 543.831 370.04C543.493 369.366 543.325 368.578 543.325 367.676C543.325 366.771 543.493 365.979 543.831 365.301C544.168 364.623 544.641 364.097 545.251 363.722C545.861 363.347 546.575 363.159 547.393 363.159C548.211 363.159 548.925 363.347 549.535 363.722C550.145 364.097 550.618 364.623 550.956 365.301C551.293 365.979 551.461 366.771 551.461 367.676C551.461 368.578 551.293 369.366 550.956 370.04C550.618 370.714 550.145 371.239 549.535 371.614C548.925 371.989 548.211 372.176 547.393 372.176ZM547.399 370.75C547.929 370.75 548.368 370.61 548.717 370.33C549.065 370.049 549.323 369.676 549.49 369.21C549.66 368.744 549.745 368.231 549.745 367.67C549.745 367.114 549.66 366.602 549.49 366.136C549.323 365.667 549.065 365.29 548.717 365.006C548.368 364.722 547.929 364.58 547.399 364.58C546.865 364.58 546.421 364.722 546.069 365.006C545.721 365.29 545.461 365.667 545.291 366.136C545.124 366.602 545.041 367.114 545.041 367.67C545.041 368.231 545.124 368.744 545.291 369.21C545.461 369.676 545.721 370.049 546.069 370.33C546.421 370.61 546.865 370.75 547.399 370.75ZM558.71 368.381V363.273H560.415V372H558.744V370.489H558.653C558.452 370.955 558.13 371.343 557.687 371.653C557.248 371.96 556.7 372.114 556.045 372.114C555.485 372.114 554.988 371.991 554.557 371.744C554.129 371.494 553.791 371.125 553.545 370.636C553.303 370.148 553.182 369.544 553.182 368.824V363.273H554.88V368.619C554.88 369.214 555.045 369.687 555.375 370.04C555.704 370.392 556.132 370.568 556.659 370.568C556.977 370.568 557.293 370.489 557.608 370.33C557.926 370.17 558.189 369.93 558.397 369.608C558.61 369.286 558.714 368.877 558.71 368.381ZM564.22 366.818V372H562.521V363.273H564.152V364.693H564.26C564.461 364.231 564.775 363.86 565.203 363.58C565.635 363.299 566.178 363.159 566.834 363.159C567.428 363.159 567.949 363.284 568.396 363.534C568.843 363.78 569.19 364.148 569.436 364.636C569.682 365.125 569.805 365.729 569.805 366.449V372H568.106V366.653C568.106 366.021 567.942 365.527 567.612 365.17C567.283 364.811 566.83 364.631 566.254 364.631C565.86 364.631 565.51 364.716 565.203 364.886C564.9 365.057 564.659 365.307 564.481 365.636C564.307 365.962 564.22 366.356 564.22 366.818ZM575.175 372.17C574.47 372.17 573.841 371.991 573.288 371.631C572.739 371.267 572.307 370.75 571.993 370.08C571.682 369.405 571.527 368.597 571.527 367.653C571.527 366.71 571.684 365.903 571.999 365.233C572.317 364.562 572.752 364.049 573.305 363.693C573.858 363.337 574.485 363.159 575.186 363.159C575.728 363.159 576.163 363.25 576.493 363.432C576.826 363.61 577.084 363.818 577.266 364.057C577.451 364.295 577.595 364.506 577.697 364.688H577.8V360.364H579.499V372H577.839V370.642H577.697C577.595 370.828 577.447 371.04 577.254 371.278C577.065 371.517 576.804 371.725 576.47 371.903C576.137 372.081 575.705 372.17 575.175 372.17ZM575.55 370.722C576.038 370.722 576.451 370.593 576.788 370.335C577.129 370.074 577.387 369.712 577.561 369.25C577.739 368.788 577.828 368.25 577.828 367.636C577.828 367.03 577.741 366.5 577.567 366.045C577.393 365.591 577.137 365.237 576.8 364.983C576.463 364.729 576.046 364.602 575.55 364.602C575.038 364.602 574.612 364.735 574.271 365C573.93 365.265 573.673 365.627 573.499 366.085C573.328 366.544 573.243 367.061 573.243 367.636C573.243 368.22 573.33 368.744 573.504 369.21C573.679 369.676 573.936 370.045 574.277 370.318C574.622 370.587 575.046 370.722 575.55 370.722ZM592.289 363.42C592.228 362.883 591.978 362.466 591.539 362.17C591.099 361.871 590.546 361.722 589.88 361.722C589.402 361.722 588.989 361.797 588.641 361.949C588.292 362.097 588.022 362.301 587.828 362.562C587.639 362.82 587.544 363.114 587.544 363.443C587.544 363.72 587.609 363.958 587.737 364.159C587.87 364.36 588.042 364.528 588.255 364.665C588.47 364.797 588.702 364.909 588.948 365C589.194 365.087 589.431 365.159 589.658 365.216L590.794 365.511C591.166 365.602 591.546 365.725 591.936 365.881C592.327 366.036 592.688 366.241 593.022 366.494C593.355 366.748 593.624 367.062 593.828 367.438C594.037 367.812 594.141 368.261 594.141 368.784C594.141 369.443 593.97 370.028 593.63 370.54C593.292 371.051 592.802 371.455 592.158 371.75C591.518 372.045 590.743 372.193 589.834 372.193C588.963 372.193 588.209 372.055 587.573 371.778C586.936 371.502 586.438 371.11 586.078 370.602C585.719 370.091 585.52 369.485 585.482 368.784H587.243C587.277 369.205 587.414 369.555 587.652 369.835C587.895 370.112 588.203 370.318 588.578 370.455C588.957 370.587 589.372 370.653 589.823 370.653C590.319 370.653 590.76 370.576 591.147 370.42C591.537 370.261 591.844 370.042 592.067 369.761C592.291 369.477 592.402 369.146 592.402 368.767C592.402 368.422 592.304 368.14 592.107 367.92C591.914 367.701 591.65 367.519 591.317 367.375C590.987 367.231 590.614 367.104 590.198 366.994L588.823 366.619C587.891 366.366 587.152 365.992 586.607 365.5C586.065 365.008 585.794 364.356 585.794 363.545C585.794 362.875 585.976 362.29 586.34 361.79C586.703 361.29 587.196 360.902 587.817 360.625C588.438 360.345 589.139 360.205 589.919 360.205C590.707 360.205 591.402 360.343 592.005 360.619C592.611 360.896 593.088 361.277 593.436 361.761C593.785 362.242 593.967 362.795 593.982 363.42H592.289ZM599.688 372.176C598.828 372.176 598.088 371.992 597.466 371.625C596.849 371.254 596.372 370.733 596.035 370.062C595.701 369.388 595.535 368.598 595.535 367.693C595.535 366.799 595.701 366.011 596.035 365.33C596.372 364.648 596.841 364.116 597.444 363.733C598.05 363.35 598.758 363.159 599.569 363.159C600.061 363.159 600.538 363.241 601 363.403C601.463 363.566 601.877 363.822 602.245 364.17C602.612 364.519 602.902 364.972 603.114 365.528C603.326 366.081 603.432 366.754 603.432 367.545V368.148H596.495V366.875H601.767C601.767 366.428 601.677 366.032 601.495 365.688C601.313 365.339 601.057 365.064 600.728 364.864C600.402 364.663 600.019 364.562 599.58 364.562C599.103 364.562 598.686 364.68 598.33 364.915C597.978 365.146 597.705 365.449 597.512 365.824C597.322 366.195 597.228 366.598 597.228 367.034V368.028C597.228 368.612 597.33 369.108 597.535 369.517C597.743 369.926 598.033 370.239 598.404 370.455C598.775 370.667 599.209 370.773 599.705 370.773C600.027 370.773 600.32 370.727 600.586 370.636C600.851 370.542 601.08 370.402 601.273 370.216C601.466 370.03 601.614 369.801 601.716 369.528L603.324 369.818C603.195 370.292 602.964 370.706 602.631 371.062C602.302 371.415 601.887 371.689 601.387 371.886C600.891 372.08 600.324 372.176 599.688 372.176ZM605.141 372V363.273H606.783V364.659H606.874C607.033 364.189 607.314 363.82 607.715 363.551C608.12 363.278 608.579 363.142 609.09 363.142C609.196 363.142 609.321 363.146 609.465 363.153C609.613 363.161 609.728 363.17 609.812 363.182V364.807C609.743 364.788 609.622 364.767 609.448 364.744C609.274 364.718 609.1 364.705 608.925 364.705C608.524 364.705 608.166 364.79 607.851 364.96C607.541 365.127 607.295 365.36 607.113 365.659C606.931 365.955 606.84 366.292 606.84 366.67V372H605.141ZM618.837 363.273L615.673 372H613.854L610.684 363.273H612.508L614.718 369.989H614.809L617.013 363.273H618.837ZM620.258 372V363.273H621.957V372H620.258ZM621.116 361.926C620.82 361.926 620.567 361.828 620.355 361.631C620.146 361.43 620.042 361.191 620.042 360.915C620.042 360.634 620.146 360.396 620.355 360.199C620.567 359.998 620.82 359.898 621.116 359.898C621.411 359.898 621.663 359.998 621.872 360.199C622.084 360.396 622.19 360.634 622.19 360.915C622.19 361.191 622.084 361.43 621.872 361.631C621.663 361.828 621.411 361.926 621.116 361.926ZM627.742 372.176C626.898 372.176 626.17 371.985 625.561 371.602C624.955 371.216 624.489 370.684 624.163 370.006C623.837 369.328 623.674 368.551 623.674 367.676C623.674 366.79 623.841 366.008 624.174 365.33C624.508 364.648 624.977 364.116 625.583 363.733C626.189 363.35 626.903 363.159 627.725 363.159C628.388 363.159 628.979 363.282 629.498 363.528C630.017 363.771 630.436 364.112 630.754 364.551C631.076 364.991 631.267 365.504 631.328 366.091H629.674C629.583 365.682 629.375 365.33 629.049 365.034C628.727 364.739 628.295 364.591 627.754 364.591C627.28 364.591 626.866 364.716 626.509 364.966C626.157 365.212 625.883 365.564 625.686 366.023C625.489 366.477 625.39 367.015 625.39 367.636C625.39 368.273 625.487 368.822 625.68 369.284C625.873 369.746 626.146 370.104 626.498 370.358C626.854 370.612 627.273 370.739 627.754 370.739C628.076 370.739 628.367 370.68 628.629 370.562C628.894 370.441 629.116 370.269 629.294 370.045C629.475 369.822 629.602 369.553 629.674 369.239H631.328C631.267 369.803 631.083 370.307 630.777 370.75C630.47 371.193 630.059 371.542 629.544 371.795C629.032 372.049 628.432 372.176 627.742 372.176ZM636.73 372.176C635.87 372.176 635.129 371.992 634.508 371.625C633.891 371.254 633.413 370.733 633.076 370.062C632.743 369.388 632.576 368.598 632.576 367.693C632.576 366.799 632.743 366.011 633.076 365.33C633.413 364.648 633.883 364.116 634.485 363.733C635.092 363.35 635.8 363.159 636.61 363.159C637.103 363.159 637.58 363.241 638.042 363.403C638.504 363.566 638.919 363.822 639.287 364.17C639.654 364.519 639.944 364.972 640.156 365.528C640.368 366.081 640.474 366.754 640.474 367.545V368.148H633.537V366.875H638.809C638.809 366.428 638.718 366.032 638.537 365.688C638.355 365.339 638.099 365.064 637.77 364.864C637.444 364.663 637.061 364.562 636.622 364.562C636.145 364.562 635.728 364.68 635.372 364.915C635.02 365.146 634.747 365.449 634.554 365.824C634.364 366.195 634.27 366.598 634.27 367.034V368.028C634.27 368.612 634.372 369.108 634.576 369.517C634.785 369.926 635.074 370.239 635.446 370.455C635.817 370.667 636.251 370.773 636.747 370.773C637.069 370.773 637.362 370.727 637.628 370.636C637.893 370.542 638.122 370.402 638.315 370.216C638.508 370.03 638.656 369.801 638.758 369.528L640.366 369.818C640.237 370.292 640.006 370.706 639.673 371.062C639.343 371.415 638.929 371.689 638.429 371.886C637.932 372.08 637.366 372.176 636.73 372.176ZM544.677 396L541.449 384.364H543.296L545.563 393.375H545.671L548.029 384.364H549.858L552.216 393.381H552.324L554.586 384.364H556.438L553.205 396H551.438L548.989 387.284H548.898L546.449 396H544.677ZM560.543 396.176C559.725 396.176 559.011 395.989 558.401 395.614C557.791 395.239 557.318 394.714 556.981 394.04C556.643 393.366 556.475 392.578 556.475 391.676C556.475 390.771 556.643 389.979 556.981 389.301C557.318 388.623 557.791 388.097 558.401 387.722C559.011 387.347 559.725 387.159 560.543 387.159C561.361 387.159 562.075 387.347 562.685 387.722C563.295 388.097 563.768 388.623 564.106 389.301C564.443 389.979 564.611 390.771 564.611 391.676C564.611 392.578 564.443 393.366 564.106 394.04C563.768 394.714 563.295 395.239 562.685 395.614C562.075 395.989 561.361 396.176 560.543 396.176ZM560.549 394.75C561.079 394.75 561.518 394.61 561.867 394.33C562.215 394.049 562.473 393.676 562.64 393.21C562.81 392.744 562.895 392.231 562.895 391.67C562.895 391.114 562.81 390.602 562.64 390.136C562.473 389.667 562.215 389.29 561.867 389.006C561.518 388.722 561.079 388.58 560.549 388.58C560.015 388.58 559.572 388.722 559.219 389.006C558.871 389.29 558.611 389.667 558.441 390.136C558.274 390.602 558.191 391.114 558.191 391.67C558.191 392.231 558.274 392.744 558.441 393.21C558.611 393.676 558.871 394.049 559.219 394.33C559.572 394.61 560.015 394.75 560.549 394.75ZM566.332 396V387.273H567.974V388.659H568.065C568.224 388.189 568.504 387.82 568.905 387.551C569.311 387.278 569.769 387.142 570.28 387.142C570.387 387.142 570.512 387.146 570.655 387.153C570.803 387.161 570.919 387.17 571.002 387.182V388.807C570.934 388.788 570.813 388.767 570.638 388.744C570.464 388.718 570.29 388.705 570.116 388.705C569.714 388.705 569.356 388.79 569.042 388.96C568.731 389.127 568.485 389.36 568.303 389.659C568.121 389.955 568.03 390.292 568.03 390.67V396H566.332ZM573.859 393.04L573.847 390.966H574.143L577.62 387.273H579.654L575.688 391.477H575.421L573.859 393.04ZM572.296 396V384.364H573.995V396H572.296ZM577.808 396L574.683 391.852L575.853 390.665L579.893 396H577.808ZM584.428 396.176C583.569 396.176 582.828 395.992 582.207 395.625C581.589 395.254 581.112 394.733 580.775 394.062C580.442 393.388 580.275 392.598 580.275 391.693C580.275 390.799 580.442 390.011 580.775 389.33C581.112 388.648 581.582 388.116 582.184 387.733C582.79 387.35 583.499 387.159 584.309 387.159C584.802 387.159 585.279 387.241 585.741 387.403C586.203 387.566 586.618 387.822 586.985 388.17C587.353 388.519 587.642 388.972 587.855 389.528C588.067 390.081 588.173 390.754 588.173 391.545V392.148H581.235V390.875H586.508C586.508 390.428 586.417 390.032 586.235 389.688C586.053 389.339 585.798 389.064 585.468 388.864C585.142 388.663 584.76 388.562 584.321 388.562C583.843 388.562 583.427 388.68 583.071 388.915C582.718 389.146 582.446 389.449 582.252 389.824C582.063 390.195 581.968 390.598 581.968 391.034V392.028C581.968 392.612 582.071 393.108 582.275 393.517C582.483 393.926 582.773 394.239 583.144 394.455C583.516 394.667 583.949 394.773 584.446 394.773C584.767 394.773 585.061 394.727 585.326 394.636C585.591 394.542 585.821 394.402 586.014 394.216C586.207 394.03 586.355 393.801 586.457 393.528L588.065 393.818C587.936 394.292 587.705 394.706 587.372 395.062C587.042 395.415 586.627 395.689 586.127 395.886C585.631 396.08 585.065 396.176 584.428 396.176ZM589.882 396V387.273H591.524V388.659H591.615C591.774 388.189 592.054 387.82 592.456 387.551C592.861 387.278 593.319 387.142 593.831 387.142C593.937 387.142 594.062 387.146 594.206 387.153C594.353 387.161 594.469 387.17 594.552 387.182V388.807C594.484 388.788 594.363 388.767 594.189 388.744C594.014 388.718 593.84 388.705 593.666 388.705C593.264 388.705 592.906 388.79 592.592 388.96C592.281 389.127 592.035 389.36 591.853 389.659C591.672 389.955 591.581 390.292 591.581 390.67V396H589.882Z" fill="black" fill-opacity="0.8"/>
<path d="M569.061 180.939C568.475 180.354 567.525 180.354 566.939 180.939L557.393 190.485C556.808 191.071 556.808 192.021 557.393 192.607C557.979 193.192 558.929 193.192 559.515 192.607L568 184.121L576.485 192.607C577.071 193.192 578.021 193.192 578.607 192.607C579.192 192.021 579.192 191.071 578.607 190.485L569.061 180.939ZM566.939 287.061C567.525 287.646 568.475 287.646 569.061 287.061L578.607 277.515C579.192 276.929 579.192 275.979 578.607 275.393C578.021 274.808 577.071 274.808 576.485 275.393L568 283.879L559.515 275.393C558.929 274.808 557.979 274.808 557.393 275.393C556.808 275.979 556.808 276.929 557.393 277.515L566.939 287.061ZM566.5 182V286H569.5V182H566.5Z" fill="#B3B3B3"/>
<path d="M809.061 180.939C808.475 180.354 807.525 180.354 806.939 180.939L797.393 190.485C796.808 191.071 796.808 192.021 797.393 192.607C797.979 193.192 798.929 193.192 799.515 192.607L808 184.121L816.485 192.607C817.071 193.192 818.021 193.192 818.607 192.607C819.192 192.021 819.192 191.071 818.607 190.485L809.061 180.939ZM566.939 287.061C567.525 287.646 568.475 287.646 569.061 287.061L578.607 277.515C579.192 276.929 579.192 275.979 578.607 275.393C578.021 274.808 577.071 274.808 576.485 275.393L568 283.879L559.515 275.393C558.929 274.808 557.979 274.808 557.393 275.393C556.808 275.979 556.808 276.929 557.393 277.515L566.939 287.061ZM806.5 182V210H809.5V182H806.5ZM784 232.5H592V235.5H784V232.5ZM566.5 258V286H569.5V258H566.5ZM592 232.5C577.917 232.5 566.5 243.917 566.5 258H569.5C569.5 245.574 579.574 235.5 592 235.5V232.5ZM806.5 210C806.5 222.426 796.426 232.5 784 232.5V235.5C798.083 235.5 809.5 224.083 809.5 210H806.5Z" fill="#B3B3B3"/>
<path d="M717.061 91.0607C717.646 90.4749 717.646 89.5251 717.061 88.9393L707.515 79.3934C706.929 78.8076 705.979 78.8076 705.393 79.3934C704.808 79.9792 704.808 80.9289 705.393 81.5147L713.879 90L705.393 98.4853C704.808 99.0711 704.808 100.021 705.393 100.607C705.979 101.192 706.929 101.192 707.515 100.607L717.061 91.0607ZM658.939 88.9393C658.354 89.5251 658.354 90.4749 658.939 91.0607L668.485 100.607C669.071 101.192 670.021 101.192 670.607 100.607C671.192 100.021 671.192 99.0711 670.607 98.4853L662.121 90L670.607 81.5147C671.192 80.9289 671.192 79.9792 670.607 79.3934C670.021 78.8076 669.071 78.8076 668.485 79.3934L658.939 88.9393ZM716 88.5H660V91.5H716V88.5Z" fill="#B3B3B3"/>
<path d="M658.939 88.9393C658.354 89.5251 658.354 90.4749 658.939 91.0607L668.485 100.607C669.071 101.192 670.021 101.192 670.607 100.607C671.192 100.021 671.192 99.0711 670.607 98.4853L662.121 90L670.607 81.5147C671.192 80.9289 671.192 79.9792 670.607 79.3934C670.021 78.8076 669.071 78.8076 668.485 79.3934L658.939 88.9393ZM717.061 91.0607C717.646 90.4749 717.646 89.5251 717.061 88.9393L707.515 79.3934C706.929 78.8076 705.979 78.8076 705.393 79.3934C704.808 79.9792 704.808 80.9289 705.393 81.5147L713.879 90L705.393 98.4853C704.808 99.0711 704.808 100.021 705.393 100.607C705.979 101.192 706.929 101.192 707.515 100.607L717.061 91.0607ZM660 91.5H716V88.5H660V91.5Z" fill="white"/>
<path d="M477.061 91.0607C477.646 90.4749 477.646 89.5251 477.061 88.9393L467.515 79.3934C466.929 78.8076 465.979 78.8076 465.393 79.3934C464.808 79.9792 464.808 80.9289 465.393 81.5147L473.879 90L465.393 98.4853C464.808 99.0711 464.808 100.021 465.393 100.607C465.979 101.192 466.929 101.192 467.515 100.607L477.061 91.0607ZM418.939 88.9393C418.354 89.5251 418.354 90.4749 418.939 91.0607L428.485 100.607C429.071 101.192 430.021 101.192 430.607 100.607C431.192 100.021 431.192 99.0711 430.607 98.4853L422.121 90L430.607 81.5147C431.192 80.9289 431.192 79.9792 430.607 79.3934C430.021 78.8076 429.071 78.8076 428.485 79.3934L418.939 88.9393ZM476 88.5H420V91.5H476V88.5Z" fill="#B3B3B3"/>
<path d="M418.939 88.9393C418.354 89.5251 418.354 90.4749 418.939 91.0607L428.485 100.607C429.071 101.192 430.021 101.192 430.607 100.607C431.192 100.021 431.192 99.0711 430.607 98.4853L422.121 90L430.607 81.5147C431.192 80.9289 431.192 79.9792 430.607 79.3934C430.021 78.8076 429.071 78.8076 428.485 79.3934L418.939 88.9393ZM477.061 91.0607C477.646 90.4749 477.646 89.5251 477.061 88.9393L467.515 79.3934C466.929 78.8076 465.979 78.8076 465.393 79.3934C464.808 79.9792 464.808 80.9289 465.393 81.5147L473.879 90L465.393 98.4853C464.808 99.0711 464.808 100.021 465.393 100.607C465.979 101.192 466.929 101.192 467.515 100.607L477.061 91.0607ZM420 91.5H476V88.5H420V91.5Z" fill="white"/>
<path d="M237.061 91.0607C237.646 90.4749 237.646 89.5251 237.061 88.9393L227.515 79.3934C226.929 78.8076 225.979 78.8076 225.393 79.3934C224.808 79.9792 224.808 80.9289 225.393 81.5147L233.879 90L225.393 98.4853C224.808 99.0711 224.808 100.021 225.393 100.607C225.979 101.192 226.929 101.192 227.515 100.607L237.061 91.0607ZM178.939 88.9393C178.354 89.5251 178.354 90.4749 178.939 91.0607L188.485 100.607C189.071 101.192 190.021 101.192 190.607 100.607C191.192 100.021 191.192 99.0711 190.607 98.4853L182.121 90L190.607 81.5147C191.192 80.9289 191.192 79.9792 190.607 79.3934C190.021 78.8076 189.071 78.8076 188.485 79.3934L178.939 88.9393ZM236 88.5H180V91.5H236V88.5Z" fill="#B3B3B3"/>
<path d="M178.939 88.9393C178.354 89.5251 178.354 90.4749 178.939 91.0607L188.485 100.607C189.071 101.192 190.021 101.192 190.607 100.607C191.192 100.021 191.192 99.0711 190.607 98.4853L182.121 90L190.607 81.5147C191.192 80.9289 191.192 79.9792 190.607 79.3934C190.021 78.8076 189.071 78.8076 188.485 79.3934L178.939 88.9393ZM237.061 91.0607C237.646 90.4749 237.646 89.5251 237.061 88.9393L227.515 79.3934C226.929 78.8076 225.979 78.8076 225.393 79.3934C224.808 79.9792 224.808 80.9289 225.393 81.5147L233.879 90L225.393 98.4853C224.808 99.0711 224.808 100.021 225.393 100.607C225.979 101.192 226.929 101.192 227.515 100.607L237.061 91.0607ZM180 91.5H236V88.5H180V91.5Z" fill="white"/>
<path d="M329.061 180.939C328.475 180.354 327.525 180.354 326.939 180.939L317.393 190.485C316.808 191.071 316.808 192.021 317.393 192.607C317.979 193.192 318.929 193.192 319.515 192.607L328 184.121L336.485 192.607C337.071 193.192 338.021 193.192 338.607 192.607C339.192 192.021 339.192 191.071 338.607 190.485L329.061 180.939ZM566.939 287.061C567.525 287.646 568.475 287.646 569.061 287.061L578.607 277.515C579.192 276.929 579.192 275.979 578.607 275.393C578.021 274.808 577.071 274.808 576.485 275.393L568 283.879L559.515 275.393C558.929 274.808 557.979 274.808 557.393 275.393C556.808 275.979 556.808 276.929 557.393 277.515L566.939 287.061ZM326.5 182V210H329.5V182H326.5ZM352 235.5H544V232.5H352V235.5ZM566.5 258V286H569.5V258H566.5ZM544 235.5C556.426 235.5 566.5 245.574 566.5 258H569.5C569.5 243.917 558.083 232.5 544 232.5V235.5ZM326.5 210C326.5 224.083 337.917 235.5 352 235.5V232.5C339.574 232.5 329.5 222.426 329.5 210H326.5Z" fill="#B3B3B3"/>
<path d="M89.0607 180.939C88.4749 180.354 87.5251 180.354 86.9393 180.939L77.3934 190.485C76.8076 191.071 76.8076 192.021 77.3934 192.607C77.9792 193.192 78.9289 193.192 79.5147 192.607L88 184.121L96.4853 192.607C97.0711 193.192 98.0208 193.192 98.6066 192.607C99.1924 192.021 99.1924 191.071 98.6066 190.485L89.0607 180.939ZM566.939 287.061C567.525 287.646 568.475 287.646 569.061 287.061L578.607 277.515C579.192 276.929 579.192 275.979 578.607 275.393C578.021 274.808 577.071 274.808 576.485 275.393L568 283.879L559.515 275.393C558.929 274.808 557.979 274.808 557.393 275.393C556.808 275.979 556.808 276.929 557.393 277.515L566.939 287.061ZM86.5 182V210H89.5V182H86.5ZM112 235.5H544V232.5H112V235.5ZM566.5 258V286H569.5V258H566.5ZM544 235.5C556.426 235.5 566.5 245.574 566.5 258H569.5C569.5 243.917 558.083 232.5 544 232.5V235.5ZM86.5 210C86.5 224.083 97.9167 235.5 112 235.5V232.5C99.5736 232.5 89.5 222.426 89.5 210H86.5Z" fill="#B3B3B3"/>
<path d="M566.939 287.061C567.525 287.646 568.475 287.646 569.061 287.061L578.607 277.515C579.192 276.929 579.192 275.979 578.607 275.393C578.021 274.808 577.071 274.808 576.485 275.393L568 283.879L559.515 275.393C558.929 274.808 557.979 274.808 557.393 275.393C556.808 275.979 556.808 276.929 557.393 277.515L566.939 287.061ZM89.0607 180.939C88.4749 180.354 87.5251 180.354 86.9393 180.939L77.3934 190.485C76.8076 191.071 76.8076 192.021 77.3934 192.607C77.9792 193.192 78.9289 193.192 79.5147 192.607L88 184.121L96.4853 192.607C97.0711 193.192 98.0208 193.192 98.6066 192.607C99.1924 192.021 99.1924 191.071 98.6066 190.485L89.0607 180.939ZM569.5 286V258H566.5V286H569.5ZM544 232.5H112V235.5H544V232.5ZM89.5 210V182H86.5V210H89.5ZM112 232.5C99.5736 232.5 89.5 222.426 89.5 210H86.5C86.5 224.083 97.9167 235.5 112 235.5V232.5ZM569.5 258C569.5 243.917 558.083 232.5 544 232.5V235.5C556.426 235.5 566.5 245.574 566.5 258H569.5Z" fill="white"/>
<path d="M566.939 287.061C567.525 287.646 568.475 287.646 569.061 287.061L578.607 277.515C579.192 276.929 579.192 275.979 578.607 275.393C578.021 274.808 577.071 274.808 576.485 275.393L568 283.879L559.515 275.393C558.929 274.808 557.979 274.808 557.393 275.393C556.808 275.979 556.808 276.929 557.393 277.515L566.939 287.061ZM329.061 180.939C328.475 180.354 327.525 180.354 326.939 180.939L317.393 190.485C316.808 191.071 316.808 192.021 317.393 192.607C317.979 193.192 318.929 193.192 319.515 192.607L328 184.121L336.485 192.607C337.071 193.192 338.021 193.192 338.607 192.607C339.192 192.021 339.192 191.071 338.607 190.485L329.061 180.939ZM569.5 286V258H566.5V286H569.5ZM544 232.5H352V235.5H544V232.5ZM329.5 210V182H326.5V210H329.5ZM352 232.5C339.574 232.5 329.5 222.426 329.5 210H326.5C326.5 224.083 337.917 235.5 352 235.5V232.5ZM569.5 258C569.5 243.917 558.083 232.5 544 232.5V235.5C556.426 235.5 566.5 245.574 566.5 258H569.5Z" fill="white"/>
<path d="M566.939 287.061C567.525 287.646 568.475 287.646 569.061 287.061L578.607 277.515C579.192 276.929 579.192 275.979 578.607 275.393C578.021 274.808 577.071 274.808 576.485 275.393L568 283.879L559.515 275.393C558.929 274.808 557.979 274.808 557.393 275.393C556.808 275.979 556.808 276.929 557.393 277.515L566.939 287.061ZM569.061 180.939C568.475 180.354 567.525 180.354 566.939 180.939L557.393 190.485C556.808 191.071 556.808 192.021 557.393 192.607C557.979 193.192 558.929 193.192 559.515 192.607L568 184.121L576.485 192.607C577.071 193.192 578.021 193.192 578.607 192.607C579.192 192.021 579.192 191.071 578.607 190.485L569.061 180.939ZM569.5 286V182H566.5V286H569.5Z" fill="white"/>
<path d="M566.939 287.061C567.525 287.646 568.475 287.646 569.061 287.061L578.607 277.515C579.192 276.929 579.192 275.979 578.607 275.393C578.021 274.808 577.071 274.808 576.485 275.393L568 283.879L559.515 275.393C558.929 274.808 557.979 274.808 557.393 275.393C556.808 275.979 556.808 276.929 557.393 277.515L566.939 287.061ZM809.061 180.939C808.475 180.354 807.525 180.354 806.939 180.939L797.393 190.485C796.808 191.071 796.808 192.021 797.393 192.607C797.979 193.192 798.929 193.192 799.515 192.607L808 184.121L816.485 192.607C817.071 193.192 818.021 193.192 818.607 192.607C819.192 192.021 819.192 191.071 818.607 190.485L809.061 180.939ZM569.5 286V258H566.5V286H569.5ZM592 235.5H784V232.5H592V235.5ZM809.5 210V182H806.5V210H809.5ZM784 235.5C798.083 235.5 809.5 224.083 809.5 210H806.5C806.5 222.426 796.426 232.5 784 232.5V235.5ZM569.5 258C569.5 245.574 579.574 235.5 592 235.5V232.5C577.917 232.5 566.5 243.917 566.5 258H569.5Z" fill="white"/>
<rect x="960" y="2" width="176" height="176" rx="6" fill="#BDE3FF" stroke="#22B4FF" stroke-width="4" stroke-linecap="round" stroke-dasharray="16 10"/>
<path d="M994.829 96V84.3636H1002.04V85.875H996.584V89.4205H1001.53V90.9261H996.584V96H994.829ZM1008.87 92.3807V87.2727H1010.58V96H1008.91V94.4886H1008.82C1008.62 94.9545 1008.29 95.3428 1007.85 95.6534C1007.41 95.9602 1006.86 96.1136 1006.21 96.1136C1005.65 96.1136 1005.15 95.9905 1004.72 95.7443C1004.29 95.4943 1003.95 95.125 1003.71 94.6364C1003.47 94.1477 1003.34 93.5436 1003.34 92.8239V87.2727H1005.04V92.6193C1005.04 93.214 1005.21 93.6875 1005.54 94.0398C1005.87 94.392 1006.3 94.5682 1006.82 94.5682C1007.14 94.5682 1007.46 94.4886 1007.77 94.3295C1008.09 94.1705 1008.35 93.9299 1008.56 93.608C1008.77 93.286 1008.88 92.8769 1008.87 92.3807ZM1016.76 87.2727V88.6364H1011.99V87.2727H1016.76ZM1013.27 85.1818H1014.97V93.4375C1014.97 93.767 1015.02 94.0152 1015.12 94.1818C1015.21 94.3447 1015.34 94.4564 1015.5 94.517C1015.66 94.5739 1015.83 94.6023 1016.01 94.6023C1016.15 94.6023 1016.27 94.5928 1016.37 94.5739C1016.47 94.5549 1016.55 94.5398 1016.61 94.5284L1016.92 95.9318C1016.82 95.9697 1016.68 96.0076 1016.5 96.0455C1016.31 96.0871 1016.09 96.1098 1015.81 96.1136C1015.37 96.1212 1014.95 96.0417 1014.56 95.875C1014.18 95.7083 1013.87 95.4508 1013.63 95.1023C1013.39 94.7538 1013.27 94.3163 1013.27 93.7898V85.1818ZM1023.99 92.3807V87.2727H1025.69V96H1024.02V94.4886H1023.93C1023.73 94.9545 1023.41 95.3428 1022.97 95.6534C1022.53 95.9602 1021.98 96.1136 1021.32 96.1136C1020.76 96.1136 1020.27 95.9905 1019.84 95.7443C1019.41 95.4943 1019.07 95.125 1018.82 94.6364C1018.58 94.1477 1018.46 93.5436 1018.46 92.8239V87.2727H1020.16V92.6193C1020.16 93.214 1020.32 93.6875 1020.65 94.0398C1020.98 94.392 1021.41 94.5682 1021.94 94.5682C1022.26 94.5682 1022.57 94.4886 1022.89 94.3295C1023.21 94.1705 1023.47 93.9299 1023.68 93.608C1023.89 93.286 1023.99 92.8769 1023.99 92.3807ZM1027.8 96V87.2727H1029.44V88.6591H1029.53C1029.69 88.1894 1029.97 87.8201 1030.37 87.5511C1030.78 87.2784 1031.24 87.142 1031.75 87.142C1031.86 87.142 1031.98 87.1458 1032.12 87.1534C1032.27 87.161 1032.39 87.1705 1032.47 87.1818V88.8068C1032.4 88.7879 1032.28 88.767 1032.11 88.7443C1031.93 88.7178 1031.76 88.7045 1031.58 88.7045C1031.18 88.7045 1030.83 88.7898 1030.51 88.9602C1030.2 89.1269 1029.95 89.3598 1029.77 89.6591C1029.59 89.9545 1029.5 90.2917 1029.5 90.6705V96H1027.8ZM1037.21 96.1761C1036.35 96.1761 1035.61 95.9924 1034.99 95.625C1034.38 95.2538 1033.9 94.733 1033.56 94.0625C1033.23 93.3883 1033.06 92.5985 1033.06 91.6932C1033.06 90.7992 1033.23 90.0114 1033.56 89.3295C1033.9 88.6477 1034.37 88.1155 1034.97 87.733C1035.58 87.3504 1036.28 87.1591 1037.09 87.1591C1037.59 87.1591 1038.06 87.2405 1038.53 87.4034C1038.99 87.5663 1039.4 87.822 1039.77 88.1705C1040.14 88.5189 1040.43 88.9716 1040.64 89.5284C1040.85 90.0814 1040.96 90.7538 1040.96 91.5455V92.1477H1034.02V90.875H1039.29C1039.29 90.428 1039.2 90.0322 1039.02 89.6875C1038.84 89.339 1038.58 89.0644 1038.25 88.8636C1037.93 88.6629 1037.55 88.5625 1037.11 88.5625C1036.63 88.5625 1036.21 88.6799 1035.86 88.9148C1035.5 89.1458 1035.23 89.4489 1035.04 89.8239C1034.85 90.1951 1034.75 90.5985 1034.75 91.0341V92.0284C1034.75 92.6117 1034.86 93.108 1035.06 93.517C1035.27 93.9261 1035.56 94.2386 1035.93 94.4545C1036.3 94.6667 1036.74 94.7727 1037.23 94.7727C1037.55 94.7727 1037.85 94.7273 1038.11 94.6364C1038.38 94.5417 1038.61 94.4015 1038.8 94.2159C1038.99 94.0303 1039.14 93.8011 1039.24 93.5284L1040.85 93.8182C1040.72 94.2917 1040.49 94.7064 1040.16 95.0625C1039.83 95.4148 1039.41 95.6894 1038.91 95.8864C1038.42 96.0795 1037.85 96.1761 1037.21 96.1761ZM1046.86 96V84.3636H1054.08V85.875H1048.62V89.4205H1053.56V90.9261H1048.62V96H1046.86ZM1059.05 96.1761C1058.19 96.1761 1057.45 95.9924 1056.82 95.625C1056.21 95.2538 1055.73 94.733 1055.39 94.0625C1055.06 93.3883 1054.89 92.5985 1054.89 91.6932C1054.89 90.7992 1055.06 90.0114 1055.39 89.3295C1055.73 88.6477 1056.2 88.1155 1056.8 87.733C1057.41 87.3504 1058.12 87.1591 1058.93 87.1591C1059.42 87.1591 1059.9 87.2405 1060.36 87.4034C1060.82 87.5663 1061.24 87.822 1061.6 88.1705C1061.97 88.5189 1062.26 88.9716 1062.47 89.5284C1062.68 90.0814 1062.79 90.7538 1062.79 91.5455V92.1477H1055.85V90.875H1061.13C1061.13 90.428 1061.03 90.0322 1060.85 89.6875C1060.67 89.339 1060.41 89.0644 1060.09 88.8636C1059.76 88.6629 1059.38 88.5625 1058.94 88.5625C1058.46 88.5625 1058.04 88.6799 1057.69 88.9148C1057.34 89.1458 1057.06 89.4489 1056.87 89.8239C1056.68 90.1951 1056.59 90.5985 1056.59 91.0341V92.0284C1056.59 92.6117 1056.69 93.108 1056.89 93.517C1057.1 93.9261 1057.39 94.2386 1057.76 94.4545C1058.13 94.6667 1058.57 94.7727 1059.06 94.7727C1059.38 94.7727 1059.68 94.7273 1059.94 94.6364C1060.21 94.5417 1060.44 94.4015 1060.63 94.2159C1060.82 94.0303 1060.97 93.8011 1061.07 93.5284L1062.68 93.8182C1062.55 94.2917 1062.32 94.7064 1061.99 95.0625C1061.66 95.4148 1061.24 95.6894 1060.74 95.8864C1060.25 96.0795 1059.68 96.1761 1059.05 96.1761ZM1067.04 96.1932C1066.49 96.1932 1065.99 96.0909 1065.54 95.8864C1065.09 95.678 1064.74 95.3769 1064.48 94.983C1064.22 94.589 1064.09 94.1061 1064.09 93.5341C1064.09 93.0417 1064.18 92.6364 1064.37 92.3182C1064.56 92 1064.82 91.7481 1065.14 91.5625C1065.46 91.3769 1065.82 91.2367 1066.22 91.142C1066.62 91.0473 1067.02 90.9754 1067.44 90.9261C1067.96 90.8655 1068.38 90.8163 1068.71 90.7784C1069.03 90.7367 1069.27 90.6705 1069.42 90.5795C1069.57 90.4886 1069.64 90.3409 1069.64 90.1364V90.0966C1069.64 89.6004 1069.5 89.2159 1069.22 88.9432C1068.94 88.6705 1068.53 88.5341 1067.98 88.5341C1067.41 88.5341 1066.96 88.661 1066.63 88.9148C1066.3 89.1648 1066.08 89.4432 1065.95 89.75L1064.36 89.3864C1064.55 88.8561 1064.82 88.428 1065.19 88.1023C1065.55 87.7727 1065.98 87.5341 1066.45 87.3864C1066.93 87.2348 1067.43 87.1591 1067.96 87.1591C1068.31 87.1591 1068.68 87.2008 1069.07 87.2841C1069.46 87.3636 1069.83 87.5114 1070.17 87.7273C1070.51 87.9432 1070.8 88.2519 1071.02 88.6534C1071.24 89.0511 1071.35 89.5682 1071.35 90.2045V96H1069.69V94.8068H1069.62C1069.51 95.0265 1069.34 95.2424 1069.12 95.4545C1068.9 95.6667 1068.62 95.8428 1068.28 95.983C1067.93 96.1231 1067.52 96.1932 1067.04 96.1932ZM1067.41 94.8295C1067.88 94.8295 1068.28 94.7367 1068.61 94.5511C1068.95 94.3655 1069.21 94.1231 1069.38 93.8239C1069.56 93.5208 1069.65 93.197 1069.65 92.8523V91.7273C1069.59 91.7879 1069.47 91.8447 1069.29 91.8977C1069.12 91.947 1068.93 91.9905 1068.71 92.0284C1068.49 92.0625 1068.28 92.0947 1068.07 92.125C1067.86 92.1515 1067.68 92.1742 1067.54 92.1932C1067.21 92.2348 1066.91 92.3049 1066.64 92.4034C1066.37 92.5019 1066.16 92.6439 1065.99 92.8295C1065.83 93.0114 1065.75 93.2538 1065.75 93.5568C1065.75 93.9773 1065.91 94.2955 1066.22 94.5114C1066.53 94.7235 1066.93 94.8295 1067.41 94.8295ZM1077.51 87.2727V88.6364H1072.74V87.2727H1077.51ZM1074.02 85.1818H1075.72V93.4375C1075.72 93.767 1075.77 94.0152 1075.86 94.1818C1075.96 94.3447 1076.09 94.4564 1076.24 94.517C1076.4 94.5739 1076.58 94.6023 1076.76 94.6023C1076.9 94.6023 1077.02 94.5928 1077.12 94.5739C1077.22 94.5549 1077.3 94.5398 1077.36 94.5284L1077.67 95.9318C1077.57 95.9697 1077.43 96.0076 1077.24 96.0455C1077.06 96.0871 1076.84 96.1098 1076.56 96.1136C1076.12 96.1212 1075.7 96.0417 1075.31 95.875C1074.93 95.7083 1074.61 95.4508 1074.38 95.1023C1074.14 94.7538 1074.02 94.3163 1074.02 93.7898V85.1818ZM1084.74 92.3807V87.2727H1086.44V96H1084.77V94.4886H1084.68C1084.48 94.9545 1084.16 95.3428 1083.72 95.6534C1083.28 95.9602 1082.73 96.1136 1082.07 96.1136C1081.51 96.1136 1081.02 95.9905 1080.58 95.7443C1080.16 95.4943 1079.82 95.125 1079.57 94.6364C1079.33 94.1477 1079.21 93.5436 1079.21 92.8239V87.2727H1080.91V92.6193C1080.91 93.214 1081.07 93.6875 1081.4 94.0398C1081.73 94.392 1082.16 94.5682 1082.69 94.5682C1083 94.5682 1083.32 94.4886 1083.64 94.3295C1083.95 94.1705 1084.22 93.9299 1084.43 93.608C1084.64 93.286 1084.74 92.8769 1084.74 92.3807ZM1088.55 96V87.2727H1090.19V88.6591H1090.28C1090.44 88.1894 1090.72 87.8201 1091.12 87.5511C1091.53 87.2784 1091.99 87.142 1092.5 87.142C1092.6 87.142 1092.73 87.1458 1092.87 87.1534C1093.02 87.161 1093.14 87.1705 1093.22 87.1818V88.8068C1093.15 88.7879 1093.03 88.767 1092.86 88.7443C1092.68 88.7178 1092.51 88.7045 1092.33 88.7045C1091.93 88.7045 1091.57 88.7898 1091.26 88.9602C1090.95 89.1269 1090.7 89.3598 1090.52 89.6591C1090.34 89.9545 1090.25 90.2917 1090.25 90.6705V96H1088.55ZM1097.96 96.1761C1097.1 96.1761 1096.36 95.9924 1095.74 95.625C1095.12 95.2538 1094.65 94.733 1094.31 94.0625C1093.98 93.3883 1093.81 92.5985 1093.81 91.6932C1093.81 90.7992 1093.98 90.0114 1094.31 89.3295C1094.65 88.6477 1095.12 88.1155 1095.72 87.733C1096.32 87.3504 1097.03 87.1591 1097.84 87.1591C1098.34 87.1591 1098.81 87.2405 1099.28 87.4034C1099.74 87.5663 1100.15 87.822 1100.52 88.1705C1100.89 88.5189 1101.18 88.9716 1101.39 89.5284C1101.6 90.0814 1101.71 90.7538 1101.71 91.5455V92.1477H1094.77V90.875H1100.04C1100.04 90.428 1099.95 90.0322 1099.77 89.6875C1099.59 89.339 1099.33 89.0644 1099 88.8636C1098.68 88.6629 1098.29 88.5625 1097.85 88.5625C1097.38 88.5625 1096.96 88.6799 1096.6 88.9148C1096.25 89.1458 1095.98 89.4489 1095.79 89.8239C1095.6 90.1951 1095.5 90.5985 1095.5 91.0341V92.0284C1095.5 92.6117 1095.6 93.108 1095.81 93.517C1096.02 93.9261 1096.31 94.2386 1096.68 94.4545C1097.05 94.6667 1097.48 94.7727 1097.98 94.7727C1098.3 94.7727 1098.6 94.7273 1098.86 94.6364C1099.13 94.5417 1099.35 94.4015 1099.55 94.2159C1099.74 94.0303 1099.89 93.8011 1099.99 93.5284L1101.6 93.8182C1101.47 94.2917 1101.24 94.7064 1100.91 95.0625C1100.58 95.4148 1100.16 95.6894 1099.66 95.8864C1099.17 96.0795 1098.6 96.1761 1097.96 96.1761Z" fill="black" fill-opacity="0.8"/>
<path d="M957.061 91.0607C957.646 90.4749 957.646 89.5251 957.061 88.9393L947.515 79.3934C946.929 78.8076 945.979 78.8076 945.393 79.3934C944.808 79.9792 944.808 80.9289 945.393 81.5147L953.879 90L945.393 98.4853C944.808 99.0711 944.808 100.021 945.393 100.607C945.979 101.192 946.929 101.192 947.515 100.607L957.061 91.0607ZM898.939 88.9393C898.354 89.5251 898.354 90.4749 898.939 91.0607L908.485 100.607C909.071 101.192 910.021 101.192 910.607 100.607C911.192 100.021 911.192 99.0711 910.607 98.4853L902.121 90L910.607 81.5147C911.192 80.9289 911.192 79.9792 910.607 79.3934C910.021 78.8076 909.071 78.8076 908.485 79.3934L898.939 88.9393ZM956 88.5H900V91.5H956V88.5Z" fill="white"/>
<path d="M898.939 88.9393C898.354 89.5251 898.354 90.4749 898.939 91.0607L908.485 100.607C909.071 101.192 910.021 101.192 910.607 100.607C911.192 100.021 911.192 99.0711 910.607 98.4853L902.121 90L910.607 81.5147C911.192 80.9289 911.192 79.9792 910.607 79.3934C910.021 78.8076 909.071 78.8076 908.485 79.3934L898.939 88.9393ZM957.061 91.0607C957.646 90.4749 957.646 89.5251 957.061 88.9393L947.515 79.3934C946.929 78.8076 945.979 78.8076 945.393 79.3934C944.808 79.9792 944.808 80.9289 945.393 81.5147L953.879 90L945.393 98.4853C944.808 99.0711 944.808 100.021 945.393 100.607C945.979 101.192 946.929 101.192 947.515 100.607L957.061 91.0607ZM900 91.5H956V88.5H900V91.5Z" fill="white"/>
<path d="M566.939 287.061C567.525 287.646 568.475 287.646 569.061 287.061L578.607 277.515C579.192 276.929 579.192 275.979 578.607 275.393C578.021 274.808 577.071 274.808 576.485 275.393L568 283.879L559.515 275.393C558.929 274.808 557.979 274.808 557.393 275.393C556.808 275.979 556.808 276.929 557.393 277.515L566.939 287.061ZM1049.06 180.939C1048.47 180.354 1047.53 180.354 1046.94 180.939L1037.39 190.485C1036.81 191.071 1036.81 192.021 1037.39 192.607C1037.98 193.192 1038.93 193.192 1039.51 192.607L1048 184.121L1056.49 192.607C1057.07 193.192 1058.02 193.192 1058.61 192.607C1059.19 192.021 1059.19 191.071 1058.61 190.485L1049.06 180.939ZM569.5 286V258H566.5V286H569.5ZM592 235.5H1024V232.5H592V235.5ZM1049.5 210V182H1046.5V210H1049.5ZM1024 235.5C1038.08 235.5 1049.5 224.083 1049.5 210H1046.5C1046.5 222.426 1036.43 232.5 1024 232.5V235.5ZM569.5 258C569.5 245.574 579.574 235.5 592 235.5V232.5C577.917 232.5 566.5 243.917 566.5 258H569.5Z" fill="white"/>
<path d="M1049.06 180.939C1048.47 180.354 1047.53 180.354 1046.94 180.939L1037.39 190.485C1036.81 191.071 1036.81 192.021 1037.39 192.607C1037.98 193.192 1038.93 193.192 1039.51 192.607L1048 184.121L1056.49 192.607C1057.07 193.192 1058.02 193.192 1058.61 192.607C1059.19 192.021 1059.19 191.071 1058.61 190.485L1049.06 180.939ZM566.939 287.061C567.525 287.646 568.475 287.646 569.061 287.061L578.607 277.515C579.192 276.929 579.192 275.979 578.607 275.393C578.021 274.808 577.071 274.808 576.485 275.393L568 283.879L559.515 275.393C558.929 274.808 557.979 274.808 557.393 275.393C556.808 275.979 556.808 276.929 557.393 277.515L566.939 287.061ZM1046.5 182V210H1049.5V182H1046.5ZM1024 232.5H592V235.5H1024V232.5ZM566.5 258V286H569.5V258H566.5ZM592 232.5C577.917 232.5 566.5 243.917 566.5 258H569.5C569.5 245.574 579.574 235.5 592 235.5V232.5ZM1046.5 210C1046.5 222.426 1036.43 232.5 1024 232.5V235.5C1038.08 235.5 1049.5 224.083 1049.5 210H1046.5Z" fill="white"/>
</svg>
